<svg id="Layer_1" data-name="Layer 1" xmlns="http://www.w3.org/2000/svg" viewBox="0 0 841.89 595.28"><defs><style>.cls-1{fill:#74c2ab;}.cls-2{fill:#484545;}</style></defs><title>GirlsGoIT Main Logo</title><path class="cls-1" d="M74.9,216.68c0,25.9,11.55,37.8,26.61,37.8,24.5,0,31.15-28.35,34.65-46.9,1.05-6.66,18.9-16.11,32.2-16.11,4.2,0,5.95,2.1,5.95,5.25,0,4.2-3.5,7.71-5.95,18.21-2.45,10.85-5.6,34.3-6.3,44.45-4.9,94.5-29.4,163.46-99.06,163.46-34.3,0-63-22.75-63-54.26,0-36.75,30.45-54.25,56.35-54.25,8.4,0,12.95,1.4,12.95,5.25,0,2.1-1.4,3.85-4.55,5.6-7.35,4.2-15,12.25-15,22.05,0,12.6,7,21.7,24.15,21.7,30.11,0,49.71-47.25,55.31-106.75-8.4,13.65-24.5,34.65-56,34.65-31.15,0-57.75-24.15-57.75-65.1C15.4,150.17,76,80.52,129.86,80.52c29,0,46.2,16.8,46.2,40.6,0,19.6-9.1,34.3-22.75,34.3-9.1,0-16.8-5.95-16.8-15.4,0-16.1,14-17.5,14-28,0-6-3.85-9.1-11.2-9.1-7.7,0-15.4,2.45-27.3,12.6C90.3,135.12,74.9,176.07,74.9,216.68Z"/><path class="cls-1" d="M179.91,285.28c0-22.4,11.55-45.15,11.55-57.75,0-5.95-2.1-6.65-2.1-11.2,0-7.7,18.55-13,38.85-13,7.7,0,11.9,3.15,11.9,9.1,0,14-11.2,36.05-11.2,59.15,0,9.1,5.25,14.35,11.55,14.35,5.95,0,8.75-2.8,13.3-7.35,2.45-2.45,3.85-3.5,5.95-3.5a5,5,0,0,1,4.9,4.9c0,3.85-2.1,6.65-5.6,11.2-7.35,9.45-22.4,23.1-44.45,23.1C191.46,314.33,179.91,301.38,179.91,285.28Zm46.55-148.06c12.6,0,19.6,8.05,19.6,18.55,0,14-12.6,29.06-25.9,29.06-10.85,0-19.6-8.41-19.6-18.91C200.56,151.92,213.16,137.22,226.46,137.22Z"/><path class="cls-1" d="M296.81,305.23c0,5.95-2.45,7.35-7.7,7.35-10.5,0-24.15,1.75-29.4,1.75-4.55,0-7.35-1.75-7.35-7.7,0-12.95,14.7-60.2,14.7-79.1,0-5.95-2.45-6.65-2.45-11.2,0-7.7,18.9-13,39.2-13,7.7,0,11.9,3.15,11.9,9.1,0,5.6-2.1,15.05-2.1,15.05s9.46-22.75,30.81-22.75c9.8,0,16.1,5.95,16.1,16.45,0,13-8.4,27.65-22.75,27.65-9.8,0-14.7-7-14.7-13.3-2.11.7-6.66,5.25-11.91,15C304.86,262.53,296.81,291.58,296.81,305.23Z"/><path class="cls-1" d="M358.77,281.43c0-31.85,27-76.65,27-130.91,0-11.55-6-17.15-13.65-17.15-3.15,0-4.9-1.4-4.9-4.2,0-7.35,18.55-18.9,38.5-18.9,18.2,0,29.75,9.8,29.75,27.3,0,29.4-28,100.46-28,134.06,0,9.1,4.9,14.35,11.2,14.35,5.95,0,8.75-2.8,13.3-7.35,2.45-2.45,3.85-3.5,5.95-3.5a5,5,0,0,1,4.9,4.9c0,3.85-2.1,6.65-5.6,11.2-7.35,9.45-22.05,23.1-44.1,23.1C369.62,314.33,358.77,299.63,358.77,281.43Z"/><path class="cls-1" d="M459.92,279.68c0,8.75,3.15,14.7,9.45,14.7,4.9,0,7.7-3.15,7.7-9.45,0-20.65-34.65-23.8-34.65-50.05,0-22,22.05-33.25,48.3-33.25,25.55,0,37.1,9.8,37.1,24.15,0,9.45-4.9,17.85-16.45,17.85-6.65,0-12.6-5.25-12.6-11.9,0-5.25,2.8-7.35,2.8-10.5,0-3.5-2.8-4.9-6.65-4.9-4.55,0-10.15,4.9-10.15,11.55,0,20.65,38.5,23.45,38.5,49,0,22.75-18.2,38.15-49,38.15-26.25,0-45.5-11.55-45.5-30.45,0-11.2,8.05-17.85,16.1-17.85C454.32,266.73,459.92,271.28,459.92,279.68Z"/><path class="cls-2" d="M267.11,432.25c0-3.84,1.2-6.48,5.51-6.48h60.21c2.87,0,4.31,1.44,4.31,3.84V504.2c0,5-1.68,7.44-6.23,7.44H316.52c-5.28,0-7.68-1.2-9.6-5.28l-1.2-2.4c-11.75,5.76-26.86,10.32-46.29,10.32-57.08,0-99.06-28.55-99.06-90.19,0-50.61,35.5-87.78,100.5-87.78,59.48,0,74.11,25.18,74.11,44.37,0,15.11-12,24.23-25.9,24.23-12.71,0-23.5-9.12-23.5-23.51a25.46,25.46,0,0,1,3.59-12.95A94.83,94.83,0,0,0,264,365.33c-42,0-59,27.58-59,60,0,33.34,17.51,57.33,56.85,57.33,14.87,0,26.38-3.12,35.74-7.68V462.23c0-5.52-3.6-7.68-8.4-7.68H272.86c-3.83,0-5.75-1.91-5.75-6.47Z"/><path class="cls-2" d="M427.33,381.16c51.56,0,72.43,31.42,72.43,66.68s-20.87,66.92-72.43,66.92c-51.81,0-72.2-31.66-72.2-66.92S375.52,381.16,427.33,381.16Zm-30,66.92c0,25.9,9.84,40.29,30,40.29,20.38,0,30.22-14.39,30.22-40.29,0-26.15-9.84-40.54-30.22-40.54C407.18,407.54,397.34,421.93,397.34,448.08Z"/><path class="cls-2" d="M651.11,484.78h2.15c5.28,0,6,1.19,6,4.31v17c0,4.56-1.2,5.52-6,5.52H579.63c-4.56,0-6-1-6-5.52v-17c0-3.12,1-4.31,6-4.31h1.92c10.07,0,13.91-2.4,13.91-13.44V378.76c0-11-3.84-13.43-13.91-13.43h-2.16c-4.8,0-5.76-1.2-5.76-4.32V344c0-4.56,1.44-5.51,5.76-5.51h73.87c4.56,0,6,.95,6,5.51v17c0,3.12-1,4.32-6,4.32h-2.39c-9.84,0-13.44,1.68-13.44,13.43v92.58C637.43,483.1,641,484.78,651.11,484.78Z"/><path class="cls-2" d="M686.6,338.47h142c8.87,0,10.55.48,11.27,11.27l1.92,36c.24,4.07.48,5.75-4.56,5.75h-19c-4.07,0-5.51-1.2-6.23-5.27l-1.2-7.68c-1.68-11-7.44-11.27-30.7-11.27h-1.44V474c.48,9.36,4.07,10.8,13.43,10.8h2.4c5,0,5.75,1.19,5.75,4.31v17c0,4.56-1.2,5.52-5.75,5.52H720.66c-4.31,0-5.75-1-5.75-5.52v-17c0-3.12,1-4.31,5.75-4.31h2.16c9.83,0,13.67-2.4,13.67-13.44V367.25h-1.68c-23,0-28.78.24-30.46,11.27l-1.2,7.68c-.72,4.07-2.4,5.27-6.23,5.27H677.73c-4.8,0-4.56-1.68-4.32-5.75l1.92-36C675.81,339,677.49,338.47,686.6,338.47Z"/></svg>