<?xml version="1.0" encoding="utf-8"?>
<!-- Generator: Adobe Illustrator 24.2.1, SVG Export Plug-In . SVG Version: 6.00 Build 0)  -->
<svg version="1.1" id="Layer_1" xmlns="http://www.w3.org/2000/svg" xmlns:xlink="http://www.w3.org/1999/xlink" x="0px" y="0px"
	 viewBox="0 0 198.4 212.8" style="enable-background:new 0 0 198.4 212.8;" xml:space="preserve">
<style type="text/css">
	.st0{fill:#F27623;}
</style>
<g>
	<path id="XMLID_199_" class="st0" d="M10.3,201.2c1.8,0,3.5-0.4,5-1v4c-1.7,0.7-3.7,1.1-5.8,1.1c-6.1,0-9.5-3.7-9.5-10.3
		c0-6.7,3.4-10.3,9.5-10.3c2.1,0,4.1,0.4,5.8,1.1v4c-1.5-0.6-3.1-1-5-1c-3.4,0-5.5,1-5.5,6.2C4.8,200.2,6.9,201.2,10.3,201.2z"/>
	<path id="XMLID_197_" class="st0" d="M30.3,184.7v4.2c-2.7,0-5.6,0-5.6,1.2c0,3.2,0,14.9,0,14.9h-4.8c0,0,0-13.1,0-17.7
		C19.9,184.3,30.3,184.7,30.3,184.7z"/>
	<path id="XMLID_195_" class="st0" d="M51.6,185V196c0,5.9-2,9.4-8.8,9.4c-6.9,0-8.8-3.5-8.8-9.4V185h4.7v11.6
		c0,3.2,1.2,4.3,4.1,4.3c2.9,0,4.1-1.1,4.1-4.3V185H51.6z"/>
	<path id="XMLID_193_" class="st0" d="M86.7,201.2c1.8,0,3.5-0.4,5-1v4c-1.7,0.7-3.7,1.1-5.8,1.1c-6.1,0-9.5-3.7-9.5-10.3
		c0-6.7,3.4-10.4,9.5-10.4c2.1,0,4.1,0.4,5.8,1.1v4c-1.5-0.6-3.1-1-5-1c-3.4,0-5.5,1-5.5,6.2C81.2,200.2,83.3,201.2,86.7,201.2z"/>
	<path id="XMLID_191_" class="st0" d="M113.6,193v12h-4.8v-12.4c0-1.8-0.4-3.6-4.9-3.6c-1.3,0-2.4,0.2-3.2,0.6v15.4H96v-27.5h4.8
		v7.9c1.1-0.4,2.4-0.7,4-0.7C110.3,184.7,113.6,187.8,113.6,193z"/>
	<path id="XMLID_189_" class="st0" d="M119.8,212.8c3.6-8.9,3.4-8.2,3.6-8.9l-7.2-18.9h5.1l4.5,13.9l4.4-13.9h5.1l-7.6,20.4
		c-2.9,7.4,0,0-2.9,7.4L119.8,212.8z"/>
	<path id="XMLID_187_" class="st0" d="M149,184.7v4.2c-2.7,0-5.6,0-5.6,1.2c0,3.4,0,14.9,0,14.9h-4.8c0,0,0-13.5,0-17.7
		C138.6,184.3,149,184.7,149,184.7z"/>
	<path id="XMLID_184_" class="st0" d="M170,195c0,6.7-3.4,10.3-9.5,10.3c-6.1,0-9.5-3.6-9.5-10.3c0-6.7,3.4-10.3,9.5-10.3
		C166.6,184.7,170,188.4,170,195z M165.2,195c0-5.3-1.8-6.3-4.7-6.3c-2.8,0-4.6,1-4.6,6.3c0,5.3,1.8,6.3,4.6,6.3
		C163.3,201.4,165.2,200.3,165.2,195z"/>
	<path id="XMLID_182_" class="st0" d="M174.1,204.9v-27.5h4.8v27.5H174.1z"/>
	<path id="XMLID_180_" class="st0" d="M184.5,204.9v-27.5h4.8v27.5H184.5z"/>
	<path id="XMLID_178_" class="st0" d="M73.3,192.4v12.5h-4.7v-12.4c0-1.8,0.1-3.6-4.2-3.6c-1.3,0-3.7,0.2-3.7,1c0,3.9,0,15,0,15H56
		c0-14.9,0-13.4,0-16.5c0-3.3,4.1-3.8,9.1-3.8C70.5,184.7,73.3,186.9,73.3,192.4z"/>
	<g>
		<path id="XMLID_177_" class="st0" d="M33.7,90.2c0-39.1,31.7-70.8,70.8-70.8c37.4,0,68.1,29,70.6,65.8c0.1-1.6,0.1-3.1,0.1-4.7
			C175.2,36.1,139.2,0,94.7,0S14.2,36.1,14.2,80.5c0,44.5,36.1,80.5,80.5,80.5c1.8,0,3.7-0.1,5.5-0.2
			C63.1,158.6,33.7,127.9,33.7,90.2z"/>
		<path id="XMLID_176_" class="st0" d="M143.6,94.2c-14.2,0-25.8-11.5-25.8-25.8c0-11.2,7.1-20.7,17-24.2
			c-7.9-4.1-16.8-6.5-26.3-6.5C77.3,37.7,52,63.1,52,94.3c0,31.3,25.3,56.6,56.6,56.6c31.3,0,56.6-25.3,56.6-56.6
			c0-3.5-0.3-7-1-10.4C159.5,90.2,152.1,94.2,143.6,94.2z"/>
	</g>
	<g>
		<path class="st0" d="M193.6,179.6c0-1.2,1-2.2,2.4-2.2c1.3,0,2.4,1,2.4,2.2c0,1.2-1,2.2-2.4,2.2
			C194.7,181.8,193.6,180.8,193.6,179.6z M198.1,179.6c0-1-0.9-1.9-2-1.9s-2,0.9-2,1.9s0.9,1.9,2,1.9S198.1,180.6,198.1,179.6z
			 M195.2,180.6v-2.1c0,0,0-0.1,0.1-0.1h0.9c0.5,0,0.9,0.4,0.9,0.7c0,0.4-0.3,0.7-0.7,0.7l0.7,0.7c0,0.1,0,0.1,0,0.1h-0.2
			c0,0-0.1,0-0.1,0l-0.7-0.7h-0.5v0.7c0,0,0,0.1-0.1,0.1L195.2,180.6C195.2,180.7,195.2,180.7,195.2,180.6z M196.2,179.6
			c0.3,0,0.6-0.2,0.6-0.5c0-0.3-0.2-0.5-0.6-0.5h-0.7v0.9H196.2z"/>
	</g>
</g>
</svg>
