<?xml version="1.0" encoding="utf-8"?>
<!-- Generator: Adobe Illustrator 23.0.1, SVG Export Plug-In . SVG Version: 6.00 Build 0)  -->
<svg version="1.1" id="Layer_1" xmlns="http://www.w3.org/2000/svg" xmlns:xlink="http://www.w3.org/1999/xlink" x="0px" y="0px"
	 viewBox="0 0 181.7 73" style="enable-background:new 0 0 181.7 73;" xml:space="preserve">
<style type="text/css">
	.st0{fill-rule:evenodd;clip-rule:evenodd;fill:#19AC8A;}
	.st1{fill:#19AC8A;}
	.st2{fill:#677887;}
</style>
<g>
	<path class="st0" d="M135.7,71.4C135.7,71.5,135.7,71.5,135.7,71.4c-0.1,0.1-0.2,0.1-0.3,0.1c0,0.1,0,0.2,0,0.3h-0.5v0.3h-0.2
		c0,0.1,0,0.1-0.1,0.1c-0.5,0.1-0.6,0.1-0.8,0.1c0,0,0,0.1,0,0.1h-0.2c0,0.1,0,0.2-0.1,0.3h-0.4c0,0,0,0.1,0,0.2h-1v-0.8h0.1v-0.4
		h0.1c0,0,0-0.1,0-0.2h0.1c0,0,0-0.1,0-0.1L135.7,71.4"/>
	<path class="st0" d="M131.1,69.8C131.1,69.8,131.1,69.8,131.1,69.8l-0.8,0v0 M138.8,69.8C138.8,69.9,138.8,69.9,138.8,69.8
		l-0.4,0.1c-0.1,0.1-0.1,0.1-0.1,0.3c-0.2,0-0.4,0.1-0.6,0.1c0,0,0,0.1,0,0.1h-0.2c0,0.1,0,0.1,0,0.2h-0.4c0,0.1-0.1,0.3-0.3,0.2
		c0,0.1-0.1,0.1-0.1,0.2c-0.1,0-0.2,0-0.2,0c0,0,0,0,0,0.1c-0.1,0-0.2,0-0.3,0c0,0-0.1,0.1-0.1,0.1c0,0-0.1,0-0.1,0v0.1h-0.2
		c0,0,0,0,0,0.1l-3.2,0c0,0,0-0.1,0-0.1c0.1-0.1,0.1-0.2,0.1-0.4h0.2c0-0.1,0.1-0.2,0.1-0.3c0.1,0,0.3,0,0.3-0.2h0.1
		c0,0,0-0.1,0-0.2c0,0,0,0,0,0v-0.3H133c0,0,0-0.1,0-0.1c0,0,0,0,0,0.1h-0.9c0,0,0-0.1,0-0.1h-0.5c0,0,0,0,0,0L138.8,69.8"/>
	<path class="st0" d="M134.7,66.7L134.7,66.7c-0.2,0-0.2,0.2-0.3,0.3c0,0-0.1,0-0.1,0.1h-0.5c0-0.1-0.1-0.1-0.1-0.1h-0.7
		c0,0,0,0,0,0.1h-0.7c0,0,0-0.1,0-0.1h-0.8v-0.1h-1.4v-0.1h-13.9c0,0.1,0.1,0.2,0,0.3h0.5v0.1h0.6c0,0.2,0.2,0.2,0.3,0.2v0.1h0.5
		v0.2h0.4c0,0,0,0,0,0.1h0.4c0.1,0,0,0,0,0c0.1,0,0.2,0,0.2,0c0,0,0,0,0,0.1h0.5c0,0.1,0.1,0.1,0.2,0.2c0.1,0,0.3,0,0.3,0.2
		c0.2,0,0.4,0.1,0.7,0.1v0.1h0.3v0.1h1.3v0.2h0.8c0-0.1,0-0.1,0.1-0.1s0,0,0.1,0v0.2h0.5c0,0,0,0,0,0.1h0.9v0.2h0.5c0,0,0,0,0,0.1
		h0.4c0.1,0,0,0.1,0.1,0.1h0.4v0.1h0.4v0.1h0.7c0.1,0,0-0.1,0.1-0.1h0.6c0.1,0,0,0.1,0.1,0.1h1.1c0.1,0,0,0,0,0c0.1,0,0.2,0,0.3,0
		c0,0,0,0,0,0.1h0.7v0.2h0.8c0,0,0.1,0,0.1-0.1c0,0,0-0.1,0-0.1c0,0,0,0.1,0,0.1c0.1,0,0.2,0,0.3,0c0,0,0,0,0,0l7.3,0
		c0-0.2,0.3-0.2,0.5-0.2c0-0.1,0-0.1,0-0.1h0.3v-0.2c0.1,0.2,0.1,0,0.3,0c0-0.1,0-0.1,0-0.1h0.5c0-0.1,0-0.2,0-0.2h0.4v0.4
		c0.1,0,0.1,0.1,0.1,0.2c0.2,0,0.1,0.1,0.2,0.1c0.1,0,0.2,0,0.3,0.1h1.8c0-0.1,0-0.1,0-0.1c0,0,0,0.1,0.1,0.1h1.9
		c0.1,0,0-0.1,0.1-0.1h1.1c0-0.1,0-0.1,0-0.1h1.2c0-0.1,0-0.1,0-0.1h1.1c0.1,0,0-0.1,0.1-0.1h0.5c0-0.1,0.1-0.1,0.1-0.1
		c0.1,0,0,0,0.1,0v0.1h0.7c0-0.1,0-0.1,0-0.1h0.1c0-0.1,0-0.1,0-0.1h0.6c0,0,0-0.1,0-0.1h0.5c0.1,0,0-0.1,0.1-0.1h0.6
		c0-0.1,0.1-0.1,0.2-0.1c0-0.1,0-0.1,0-0.1h1.4c0-0.1,0-0.1,0-0.1h0.5c0.1,0,0-0.1,0.1-0.1h0.7c0-0.1,0-0.2,0-0.2h0.7
		c0.1-0.1,0.2,0,0.2-0.1h1c0.1-0.1,0.1-0.2,0.2-0.2c0,0,0-0.1,0-0.1h0.8c0-0.1,0-0.1,0-0.1h0.4c0-0.2,0.3-0.2,0.4-0.2
		c0-0.1,0-0.1,0-0.2c0.1,0,0.3,0.1,0.3-0.1h0.7v-0.1c0.2,0,0.3,0,0.4-0.1c0-0.1,0.1-0.1,0.2-0.1h0.6c0-0.1,0-0.1,0-0.1l-19.2,0
		c0,0,0,0,0,0c-0.2,0.1-0.3,0.1-0.4,0.1c0,0.1,0,0.2,0,0.3h-0.1c0,0.1-0.1,0.1-0.1,0.2v0.4c0,0-0.1,0-0.1,0.1v-0.2
		c-0.1,0-0.2-0.1-0.3-0.1v-0.3h-0.3V67c0,0-0.1,0-0.1,0v-0.1c-0.1-0.1-0.2-0.1-0.4-0.1c0,0,0-0.1,0-0.1L134.7,66.7"/>
	<path class="st0" d="M135.3,65.1L135.3,65.1l-0.3,0v0.7c0,0-0.1,0-0.1,0v0.6h-0.1c0,0,0,0.1,0,0.1h-0.1v0.2h5.3
		c0-0.1,0-0.2-0.1-0.3h-0.5c-0.1-0.1-0.1-0.1-0.2-0.1c0-0.1,0-0.2,0-0.2c0,0,0,0-0.1,0c0-0.1,0-0.2-0.1-0.3c0,0,0-0.1,0-0.1
		c-0.1,0-0.2,0-0.3-0.1c0,0-0.1-0.1-0.2-0.1v-0.2c0,0-0.1,0-0.1,0 M144.7,65.1C144.7,65.2,144.6,65.2,144.7,65.1l-0.6,0.1
		c-0.1,0,0,0.1,0,0.1c0,0.1-0.2,0.1-0.2,0.3h-0.1c0,0,0,0.1,0,0.1h-0.2c0,0,0,0.1,0,0.2c-0.1,0-0.2,0-0.2,0.1c-0.1,0-0.2,0-0.2,0
		c0,0,0,0.1,0,0.2c-0.1-0.1-0.3,0.1-0.3,0.2h-0.2c0,0,0,0.1,0,0.1c-0.3,0-0.4,0.1-0.6,0.1c0,0,0,0,0,0l19.2,0c0,0,0,0,0-0.1h0.6
		c0-0.1,0.2-0.1,0.2-0.1c0-0.1,0.1-0.1,0.1-0.1c0,0,0.1-0.1,0.1-0.1c0.2,0,0.3-0.1,0.5-0.1c0-0.1,0-0.1,0-0.1h0.4c0-0.1,0-0.1,0-0.1
		h0.2c0-0.1,0-0.1,0-0.2h0.7c0-0.2,0-0.2,0.1-0.3h0.6c0.1,0,0-0.1,0.1-0.1h0.4c0-0.1,0-0.2,0-0.2c0.2,0,0.3-0.1,0.5,0v-0.1l-8.6,0
		c0,0,0,0,0,0h-0.5c0,0,0,0.1,0,0.2c0,0-0.2,0-0.1,0.1c-0.1,0-0.3,0-0.3,0.1h-0.7c0,0.2-0.4,0-0.4,0.2h-0.6c0,0,0,0.1,0,0.1
		c-0.1,0-0.2-0.1-0.3,0.1h-1.2c0,0,0,0.1,0,0.1h-0.4c0,0,0,0.1-0.2,0.1c0,0.1-0.1,0.1-0.1,0.2h-0.4c-0.1,0,0,0.1-0.1,0.1h-0.5
		c-0.1,0,0-0.1-0.1-0.1h-0.8c0,0-0.1,0.1-0.1,0.1h-0.7c-0.1,0,0,0.1-0.1,0.1h-0.6c0,0,0,0,0,0.1h-1.4c-0.1,0-0.1,0.1-0.1,0.1l-0.3,0
		h0.2c0,0,0-0.1,0-0.1c0.1,0,0.1-0.1,0.1-0.1c0,0,0.1,0,0.2,0c0,0,0-0.1,0-0.2h0.3v-0.2c0.2,0.1,0.3-0.1,0.4-0.1c0-0.1,0-0.2,0-0.3
		c0,0,0.1,0,0.1-0.1h0.4c0-0.1,0.1-0.2,0.1-0.3L144.7,65.1z M116.3,66.7C116.3,66.7,116.3,66.7,116.3,66.7c0-0.1-0.1,0-0.9-0.1
		c0-0.1-0.2-0.1-0.1-0.2c-0.2,0-0.4-0.1-0.6-0.1v-0.2c-0.2,0-0.3-0.1-0.5-0.1c0,0,0,0,0-0.1h-0.4c0.1,0,0,0,0-0.1c0,0,0-0.1,0-0.2
		c0,0-0.1,0-0.1,0c-0.1-0.1-0.1-0.1-0.2-0.1v-0.1h-0.4v-0.2h-0.7c0-0.1,0-0.1,0-0.2l8.9,0v0.1c0.2-0.1,0.2,0.1,0.3,0.1
		c0,0,0-0.1,0-0.1h0.8v0.1h0.5v0.2h1.1v0.3h1v0.3h0.3c0,0,0-0.1,0-0.1h0.7c0,0.2,0.3,0.1,0.4,0.1c0,0,0,0.1,0.1,0.1
		c0.1,0,0.3-0.1,0.3,0.1h0.5v0.2h0.1c0.1-0.1,0.1,0,0.2-0.1h0.7v0.2h1.8v0H116.3"/>
	<path class="st1" d="M120.4,65c-0.1-0.2-0.3-0.1-0.4-0.1v-0.2h-0.6v-0.2h-0.5c0.1-0.1,0-0.2,0-0.3c0,0-0.1,0-0.7,0V64h-0.9v-0.4
		c-0.1,0-0.2,0-0.3,0c0,0,0,0,0,0h-0.5c-0.1-0.1-0.2-0.1-0.2-0.1v-0.2h-0.4c-0.1-0.2-0.3-0.1-0.5-0.1v-0.2c-0.1,0-0.1,0-0.2,0
		c0.1-0.1-0.1-0.3-0.2-0.3v-0.1h-0.6v-0.3h-0.4c-0.1,0-0.1-0.1-0.1-0.1v-0.1c0,0-0.1,0-0.1,0v0v-0.2h-0.4c0,0,0-0.1,0-0.1
		c-0.1,0-0.2-0.1-0.3-0.1c0,0,0-0.1,0-0.1c-0.1-0.1-0.3-0.1-0.4-0.1c0-0.1-0.1-0.1-0.1-0.1c0-0.1-0.1-0.2-0.1-0.3c0,0-0.1,0-0.2,0
		v-0.2h-0.3v-0.2c0,0-0.1,0-0.1,0v-0.1h-0.3c0,0,0-0.1,0-0.1c0,0,0-0.1,0-0.1c-0.1-0.1-0.1,0-0.2-0.1c0,0-0.1-0.1-0.2-0.1V60h-0.3
		c0-0.2-0.2-0.2-0.1-0.5c-0.2,0-0.2-0.2-0.2-0.3c0,0-0.1,0-0.2,0V59h-0.3c0-0.1,0.1-0.2-0.1-0.3v-0.2h-0.4v-0.3
		c-0.1,0-0.2,0-0.3-0.1c-0.1-0.1-0.1-0.1-0.2-0.1c0,0,0-0.3-0.1-0.2c0-0.2-0.1-0.2-0.2-0.3c-0.1,0-0.2,0-0.3-0.1c0,0,0,0,0,0H105
		v0.8c0.1,0,0.1,0,0.1,0v0.1h0.3v0.4c0.1,0,0.1,0,0.1,0V59c0.1,0,0.2,0,0.3,0.1v0.5c0.1,0,0.2,0,0.3,0c-0.1,0.3,0.1,0.4,0.3,0.4v0.3
		c0.1,0,0.1,0,0.1,0v0.2v0.3c0.1,0,0.2,0,0.3,0c-0.1,0.2,0.3,0.2,0.4,0.2c0.1,0.4,0.1,0.5,0.1,0.7c0.1,0,0.3,0.1,0.4,0.1V62h0.4V62
		v0.4c0.1,0,0.2,0,0.3,0v0.3c0.1,0,0.2,0,0.2,0c0,0,0,0.1,0,0.2c0.1,0,0.1,0.1,0.1,0.2c0,0,0.1,0,0.1,0.1c0.2,0,0.4,0.1,0.6,0.1v0.2
		h0.4c0,0,0,0,0,0.1c0.2,0,0.5,0,0.4,0.3c0.2,0,0.2,0.1,0.3,0.2c0,0.1,0,0.1,0,0.2c0.1,0,0.1,0,0.1,0v0.2h0.5c0,0.2,0.2,0,0.4,0.1
		c0.1,0.1,0.1,0.3,0.1,0.5c0.1,0,0.1,0.1,0.2,0.1c0.4,0,0.4,0,0.5,0c0,0,0,0.1,0,0.1h8.9v0h-0.6C120.6,64.9,120.5,65.1,120.4,65"/>
	<path class="st1" d="M138.4,64.8c-0.3,0-0.4-0.1-0.5-0.1c0-0.2-0.2-0.2-0.1-0.4c-0.1,0-0.2,0-0.3,0v-0.1c-0.1,0-0.2,0-0.3,0v-0.4
		h-0.4c-0.1,0,0-0.1-0.1-0.1h-0.9c0,0,0,0.1,0,0.2c-0.1,0.1-0.2,0.1-0.3,0.2v0.7h-0.1v0.3l3.1,0c0,0-0.1,0-0.1,0"/>
	<path class="st1" d="M148.5,62.1c0,0,0,0.1,0,0.2H148c0,0,0,0.1,0,0.2h-0.1c0,0,0,0.1,0,0.2c-0.2-0.1-0.2,0.2-0.3,0.1
		c0,0,0,0.1,0,0.2h-0.2c0,0.1-0.1,0.3-0.3,0.2c0,0,0,0.1,0,0.1h-0.2c0,0.1,0,0.1,0,0.2h-0.1c0,0,0,0.1,0,0.1
		c-0.2-0.1-0.3,0.1-0.3,0.3c-0.1,0-0.1,0-0.2,0c0,0-0.1,0.2-0.2,0.1c0.1,0.1-0.2,0.2-0.3,0.2c0,0,0,0.1,0,0.1c0,0-0.1,0.1-0.1,0.2
		c-0.1,0-0.2,0.1-0.3,0.1c0,0-0.1,0-0.1,0v0.1h-0.2c0,0,0,0.1,0,0.2h-0.2c0,0,0,0.1,0,0.1l4.1,0c0,0,0,0,0,0c0.2,0,0.4,0,0.4-0.2
		h0.1c0-0.1,0-0.2,0-0.3h0.4c0-0.1,0.1-0.3,0.2-0.2c-0.1-0.1,0.2-0.3,0.3-0.2c0,0,0-0.1,0-0.1h0.1c0.1-0.1,0-0.3,0.1-0.4h0.4
		c0,0,0-0.1,0-0.1h0.1c0-0.1,0-0.2,0.1-0.3c0.1,0,0.3,0,0.3-0.2h0.1c0-0.1,0-0.1,0-0.2c0.1-0.1,0.1-0.2,0.1-0.2
		c0.1,0,0.2-0.1,0.2-0.1c0.1,0,0.2-0.1,0.3-0.2h0.2V62h-3.4C148.7,62.1,148.6,62.1,148.5,62.1"/>
	<path class="st1" d="M135.4,62.3V63c0,0,0.1,0,0.2,0v0.3h0.8v0.2h0.7c0,0,0-0.1,0-0.2h0.4c0-0.1,0-0.5,0.3-0.4
		c0-0.1,0.1-0.3,0.1-0.4c0.1-0.1,0-0.2,0.1-0.3h0.2c0-0.1,0-0.1,0-0.2l-2.8,0L135.4,62.3C135.4,62.3,135.4,62.3,135.4,62.3"/>
	<path class="st1" d="M166,62C166,62,166,62,166,62l-0.5,0c0,0.1,0,0.2,0,0.3H165c-0.1,0,0,0,0,0c0,0-0.1,0-0.2,0
		c0,0-0.1,0.1-0.1,0.1c-0.1,0-0.2,0-0.2,0c0,0.1,0,0.2,0,0.3c-0.1,0-0.2,0-0.2,0c0,0,0,0,0,0.1c0,0-0.1,0-0.2,0
		c-0.1,0.1-0.2,0.1-0.4,0.1c0,0,0,0.1,0,0.1h-0.3c0,0.1-0.2,0.1-0.4,0.1c0,0,0,0.1,0,0.1h-0.6c0,0.1,0,0.1,0,0.2
		c-0.2-0.1-0.3,0.1-0.5,0.1v0.1c-0.2,0-0.3,0.1-0.5,0.1c0,0,0,0,0,0.1h-0.7v0.3c0,0.1-0.1,0-0.2,0c0,0-0.1,0.1-0.1,0.1
		c-0.1,0-0.2,0-0.3,0.1h-0.5c0,0.1-0.1,0.1-0.1,0.2c-0.1,0-0.1,0.1-0.1,0.1h-1c0,0.1-0.1,0.1-0.1,0.3h-1c0,0,0,0.1,0,0.1l8.6,0V65
		c0.1,0.1,0.2,0,0.4,0c0-0.1,0-0.2,0-0.3c0.1,0,0.2,0,0.3,0c0-0.1,0.2-0.1,0.2-0.1v-0.2h0.6c0,0,0.1-0.1,0.1-0.1
		c0-0.1,0.1-0.2,0.1-0.3h0.2c0-0.1,0-0.2,0-0.2h0.5c0.1-0.1,0.1-0.1,0.2-0.1c0-0.1,0.1-0.1,0.1-0.2c0,0,0.1,0,0.1,0
		c0,0,0.1-0.1,0.1-0.1c0,0,0.1,0,0.2,0v-0.1c0.1,0.1,0.2-0.1,0.2-0.2c0.2,0,0.3-0.1,0.5-0.1c0-0.1,0-0.1,0-0.1h0.4
		c0-0.1,0-0.1,0-0.2h0.3c0-0.1,0-0.2,0-0.2c0.2,0,0.2-0.2,0.3-0.3h0.6c0-0.1,0-0.1,0-0.2"/>
	<path class="st1" d="M168.4,60.6c0,0,0,0.1,0,0.1h-0.1c0,0,0,0.1,0,0.2h-0.4c0,0,0,0.1,0,0.1c-0.2,0.1-0.3,0.1-0.5,0.3h-0.2
		c0,0,0,0.1-0.1,0.2h-0.6c0,0.2-0.2,0.4-0.4,0.4c0,0,0,0.1,0,0.2l5.2,0c0,0,0,0,0-0.1c0.1,0,0.4,0,0.4-0.2h0.2v-0.3h0.3
		c0-0.1,0.1-0.1,0.1-0.2h0.4c0.1-0.1,0.2-0.2,0.4-0.2v-0.3h0.3c0-0.1,0-0.2,0-0.2c0,0,0.1,0,0.1,0l-4.6,0v0.1"/>
	<path class="st1" d="M138.2,55.8H138c0,0,0,0.1,0,0.2h-0.3c0,0.1,0,0.2,0,0.3c0,0,0,0,0,0V57c-0.1,0.1-0.1,0.1-0.1,0.2h-0.1
		c0,0.1-0.1,0.1-0.1,0.2h0c0,0.1,0,0.1-0.1,0.1v0.4c0,0.1-0.1,0.1-0.1,0.1c0,0-0.1,0.1-0.1,0.1h-0.2v0.5c-0.1,0-0.2,0.1-0.2,0.3
		h-0.1v0.3c-0.1-0.1-0.2,0-0.2,0c0,0,0,0.1,0,0.6c-0.1,0.1-0.1,0.2-0.1,0.3h-0.2v0.3v0.1c-0.1,0-0.1,0.1-0.1,0.2h-0.2v0.5
		c0,0-0.1,0-0.1,0v0.4c-0.2,0-0.2,0.1-0.3,0.2V62h2.8c0-0.2,0.1-0.4,0.1-0.7c0.1,0,0.1-0.1,0.2-0.1v-0.4h0.2v-0.4v-0.2
		c0.1,0,0.1-0.1,0.1-0.2h0.1c0,0,0-0.1,0-0.2c0.1-0.1,0-0.2,0.1-0.4h0.2v-0.4h0.1c0-0.1,0-0.2,0-0.3c0.1-0.1,0.1-0.1,0.1-0.2h0.1
		c0.1,0,0-0.1,0-0.1c0.2,0,0.1-0.2,0.1-0.3c0.2,0,0.1-0.3,0.1-0.4h0.1c0,0,0-0.1,0-0.2h0.1c0-0.1,0-0.1,0-0.2c0-0.2,0.1-0.4,0.1-0.6
		c0.1,0,0.2-0.2,0.1-0.3h0.2c0-0.1,0-0.2,0-0.3c0,0,0,0,0,0v-0.4L138.2,55.8C138.2,55.8,138.2,55.8,138.2,55.8"/>
	<path class="st1" d="M153.9,55.8c0,0.1,0,0.1,0,0.2c0,0-0.1,0-0.1,0.1c-0.1,0-0.2,0.1-0.2,0.2h-0.1v0.3h-0.2v0.3h-0.2
		c0,0.1,0,0.2,0,0.3c0,0.1-0.1,0.1-0.1,0.2l1.3,0l-1.3,0c0,0,0,0,0,0h-0.3v0.3h-0.2c0,0.1-0.1,0.1-0.1,0.3c-0.2,0.1-0.1,0.3-0.1,0.4
		c0,0-0.1,0-0.1,0.1h-0.4c0,0,0,0.1,0,0.2h-0.1c0,0.1,0,0.1,0,0.2h-0.2c0,0.2-0.1,0.2-0.1,0.3h-0.1c0,0,0,0.1,0,0.2H151
		c0,0,0,0.1,0,0.2h-0.2c0,0,0,0.1,0,0.2h-0.2c-0.1,0,0,0.1,0,0.1c-0.1,0.1-0.2,0.1-0.3,0.2c0,0.1,0,0.2,0,0.3h-0.2c0,0,0,0.1,0,0.1
		c0,0,0,0,0,0c0,0,0,0.1,0,0.1H150c0,0,0,0.1,0,0.1c-0.1,0-0.2,0.1-0.3,0.1c0,0.1-0.1,0.2-0.1,0.3c-0.2,0-0.3,0.1-0.4,0.2
		c0,0,0,0.1,0,0.2c0,0-0.1,0.1-0.1,0.1h-0.2c0,0.2-0.1,0.4-0.1,0.5l3.4,0v-0.1c0.1,0,0.1,0,0.2,0c0,0,0.1-0.1,0.1-0.1
		c0,0,0-0.1,0-0.2h0.2c0,0,0-0.1,0-0.2c0.1,0,0.1-0.1,0.1-0.1c0,0,0.1,0,0.1,0c0.1-0.1,0.1-0.1,0.1-0.2h0.2v-0.3
		c0.1,0,0.3,0,0.3-0.2h0.2c0,0,0-0.1,0-0.1h-1.4l1.4,0c0,0,0-0.1,0-0.1h0.2V60h0.1c0,0,0-0.1,0.1-0.2c0.1,0,0.1-0.1,0.2-0.1
		c0-0.1,0.1-0.3,0.1-0.4h0.1c0-0.1,0.1-0.2,0.1-0.3c0.1,0,0.1,0,0.2,0c0,0,0.1-0.1,0.1-0.1c0,0,0-0.1,0-0.2h0.2v-0.3
		c0.2,0.1,0.2-0.1,0.3-0.1c0-0.1,0-0.2,0-0.3c0,0,0,0,0.1,0c0-0.2,0.1-0.3,0.1-0.5c0,0,0.1,0,0.1,0c0-0.1,0.1-0.1,0.1-0.2h0
		c0,0,0,0,0-0.1c0.1,0,0.1-0.1,0.2,0v-0.2c0.1,0.1,0.2,0,0.2,0c0-0.1,0-0.2,0-0.3c0.1-0.1,0.1-0.1,0.1-0.2h0.2
		c0-0.2,0.1-0.3,0.1-0.5h0.3c0-0.1,0-0.1,0.1-0.2"/>
	<path class="st1" d="M108.2,56.5c-0.1,0-0.2-0.1-0.3-0.1v-0.3c0,0-0.1,0-0.1,0c0-0.1,0-0.3-0.1-0.3c0,0,0,0,0,0h-3.3v0.3
		c0.1,0,0.2,0,0.3,0v0.3c0.1,0,0.1,0,0.1,0v0.4c0,0,0.1-0.1,0.1,0v0.4c0.1,0,0.1,0,0.1,0v0.2l3.3,0
		C108.2,56.8,108.2,56.7,108.2,56.5"/>
	<path class="st1" d="M107.6,55.2c0,0-0.1,0-0.1,0v-0.6c0,0-0.1,0-0.2,0v-0.2h0.1v-0.9c0,0-0.1,0-0.1,0v-0.7c0-0.1,0,0,0.1,0v-0.1
		h-2.9v1c0,0-0.1,0-0.1,0v0.8c0.1,0,0.2,0,0.3,0v0.1c0,0,0,0-0.1,0v0.4c0,0-0.1,0.1-0.1,0.2v0.6l3.3,0
		C107.6,55.4,107.6,55.3,107.6,55.2"/>
	<path class="st1" d="M177,52.7C177,52.7,177,52.7,177,52.7l-0.1,0V53c-0.2,0.1-0.4,0.1-0.4,0.3c0,0.1,0,0.2,0,0.3
		c-0.1,0-0.1,0.2-0.3,0.1v0.1c-0.1,0.1-0.3,0.1-0.4,0.1c0,0,0,0.1,0,0.5h-0.2v0.3c-0.1,0-0.2,0.1-0.2,0.2h-0.1c0,0,0,0.1,0,0.2h-0.2
		c0,0,0,0.1,0,0.2h-0.2c0,0,0,0.1,0,0.1c-0.2,0-0.2,0.1-0.2,0.2h-0.1c0,0,0,0,0,0.1c0,0,0,0.1,0,0.1c-0.1,0.1-0.2,0.3-0.4,0.2
		c0,0,0,0.1,0,0.2c0,0-0.1,0.1-0.1,0.1h-0.1c0,0.1,0,0.1-0.1,0.2h-0.2c0,0.2-0.2,0.3-0.4,0.3c0,0,0,0.1,0,0.1
		c-0.1,0.1-0.1,0.1-0.1,0.2h-0.3c0,0,0,0,0,0.1v0c0,0,0,0,0,0c0,0,0,0.1,0,0.1h-0.1c0,0,0,0.1,0,0.1h-0.2c0,0.1-0.1,0.1-0.1,0.3
		c-0.2-0.1-0.2,0.2-0.4,0.1c0,0,0,0.1,0,0.1h-0.3c0,0,0,0.1,0,0.2h-0.1c0,0,0,0.1,0,0.2c-0.1,0-0.3,0-0.3,0.2h-0.1
		c0,0.1-0.1,0.3-0.2,0.2v0.1h-0.2c0,0,0,0.1,0,0.1h-0.4c-0.1,0.1-0.2,0.2-0.2,0.4c-0.2-0.1-0.2,0.1-0.4,0.1v0.1h-0.2
		c0,0,0,0.1,0,0.1c-0.2,0-0.4,0-0.4,0.2h-0.2c0,0.1-0.2,0.3-0.3,0.3v0h4.6c0,0,0.1,0,0.1,0c0,0,0,0,0,0v0v-0.3h0.2
		c0-0.1,0-0.1,0-0.1h0.2v-0.2c0.1,0.1,0.2,0,0.4,0c0-0.1,0.1-0.2,0.1-0.3c0.2,0,0.4-0.1,0.3-0.2h0.1c0-0.1,0-0.1,0.1-0.2
		c0-0.1,0.1-0.1,0.1-0.2c0.1,0,0.2,0,0.2,0v-0.1c0.2,0,0.2-0.1,0.2-0.2h0.2c0-0.1,0-0.1,0-0.2h0.1c0-0.1,0-0.2,0-0.2h0.3
		c0-0.1,0-0.1,0-0.1h0.1c0-0.1,0-0.1,0.1-0.2c0,0,0-0.1,0-0.2h0.1c0-0.1,0-0.2,0-0.2h0.2c0,0,0-0.1,0-0.1h-0.7h0.7c0,0,0-0.1,0-0.1
		h0.2c0.1-0.1,0-0.2,0.2-0.2c0-0.1,0.1-0.2,0.1-0.2c0,0,0.1,0,0.1,0c0.1,0,0.1-0.1,0.1-0.1c0-0.1,0-0.1,0-0.2h0.1c0-0.1,0-0.2,0-0.3
		c0,0,0.1,0,0.1,0c0.1-0.1,0.1-0.1,0.2-0.1c0.1-0.1,0.1-0.2,0.1-0.3h0.1v0v-0.1c0.3,0,0.1-0.3,0.4-0.3c0-0.1,0.1-0.2,0.1-0.3h0.2
		c0-0.1,0-0.2,0.1-0.3c0-0.1,0-0.2,0-0.2h0.1c0-0.1,0-0.1,0-0.2c0.1,0.1,0.1,0,0.3-0.1v-0.4h0.1v-0.3h0.2c0-0.1,0.1-0.2,0.1-0.2
		c0,0,0-0.1,0-0.2h0.1c0-0.1,0-0.2,0-0.2h0.1c0-0.1,0-0.1,0-0.1h0.2v-0.1"/>
	<path class="st1" d="M157.4,55.1h0.2v-0.5h0.2v-0.5h0.2c0,0,0-0.1,0-0.2h0.1c0,0,0-0.1,0-0.2h0.2v-0.5c0.2,0,0.2-0.2,0.2-0.4
		c0.1,0,0.1-0.1,0.1-0.2l-2.8,0c0,0-0.1,0.1-0.1,0.1c0,0.1,0,0.2,0,0.3h-0.4v0.5H155v0.7c0,0-0.3,0-0.1,0.1c-0.1,0-0.1,0-0.2,0
		c-0.1,0.1-0.1,0.3-0.1,0.5c-0.2,0-0.2,0.2-0.3,0.2v0.4c0,0-0.1,0.1-0.1,0.1c0,0-0.1,0.1-0.2,0.1c0,0,0,0.1,0,0.2h-0.2
		c0,0,0,0,0,0.1l3.2,0c0-0.2,0-0.3,0.1-0.5C157.3,55.3,157.5,55.2,157.4,55.1"/>
	<path class="st1" d="M139.3,52.9h-0.1v0.3c-0.2-0.1-0.2,0.2-0.2,0.3c-0.1,0.1-0.1,0.1-0.1,0.2h-0.1v0.6h-0.1c0,0,0,0.1,0,0.1h-0.2
		v0.3h-0.1v0.7c0,0.1,0,0,0,0c0,0,0,0.1,0,0.2c-0.1,0-0.1,0.1-0.1,0.1l2.5,0v-0.1h0.1c0-0.1,0-0.1,0-0.2h0.1V55h0.2v-0.4h0.2v-0.7
		c0,0,0,0-0.1,0c0.1-0.1,0.2-0.3,0.5-0.3c0-0.4,0.1-0.5,0.1-0.7h0.1v-0.3h-2.6C139.3,52.7,139.3,52.8,139.3,52.9"/>
	<path class="st1" d="M125.4,52.9C125.4,52.9,125.4,52.9,125.4,52.9l-0.1,0.6h-0.2c0,0,0,0.1,0,0.1H125v1.1c0,0.1,0,0-0.1,0v0.7
		h-0.1v0.4v0.3h-0.3c0,0.7,0,0.8,0,0.9h0.1c0,0.1,0.1,0.1,0.1,0.1c0,0.1-0.1,0.1-0.1,0.1c0,0-0.1,0-0.1,0c0,0,0,0.1,0,0.1
		c0,0.1-0.1,0.1,0,0.2h-0.2v0.7c0,0.1,0.1,0.1,0.1,0.1c0,0.1-0.1,0.1-0.1,0.1v1.9v0.1c0,0,0.1,0,0.1,0c0,0.1,0,0.2,0.1,0.5
		c-0.1,0-0.1,0.1-0.1,0.1c0,0.1,0,0.2,0,0.3c0,0,0,0,0,0V62v0.3c0,0,0.1,0,0.2,0v0.7c0.1,0,0.1,0,0.2,0v0.3c0.1,0,0.2,0,0.3,0v0.1
		c-0.1,0-0.1,0.1-0.2,0.1v0.8h0.5v0.3h0.8c0,0,0-0.1,0-0.1c0,0,0.1,0,0.1-0.1h0.4c0-0.2,0-0.3,0.1-0.5c0,0,0.1,0,0.1-0.1h0.4
		c0-0.1,0.1-0.2,0.1-0.3c0.1,0,0.2-0.1,0.3-0.1c0-0.2,0.1-0.2,0-0.3h0.3v-0.8c0,0,0,0-0.1,0V62v-0.3c0,0-0.1,0-0.2,0v-0.2
		c0,0-0.1,0-0.1,0v-1c0,0-0.1,0-0.1,0c0,0,0,0,0,0c0-0.1,0.1-0.1,0.1-0.1v-0.8c0-0.1,0,0-0.1,0v-0.7c0-0.1,0,0,0,0
		c0,0,0-0.1-0.1-0.2v-0.2h0.1v-1v-0.1c0-0.1,0,0,0.1,0v-0.7c0.1,0,0.1-0.1,0.2-0.1c0,0,0-0.1,0-0.5c0,0,0.1,0,0.1-0.1v-0.2v-0.4h0.1
		v-0.8h0.1c0-0.1,0-0.2,0.2-0.3v-0.6c0,0,0.1,0,0.1,0v-0.4h0.1c0-0.1,0-0.1,0.1-0.2c0-0.1,0-0.2,0-0.3h0.1c0,0,0-0.1,0-0.1l-2.9,0
		C125.4,52.7,125.4,52.8,125.4,52.9"/>
	<path class="st0" d="M110.5,51.1v0.9c0,0,0,0,0.1,0.1c0.1,0,0.1,0,0.2,0c0,0,0,0,0,0h0.4c0,0,0,0.1,0,0.1h0.7
		c0-0.1,0.1-0.1,0.2-0.1c0.1,0,0.1,0,0.2,0.1h0.7c0,0,0,0,0-0.1h0.3c0.1,0.1,0.1,0.1,0.2,0.1v0.1h0.9c0-0.1,0.1-0.1,0.1-0.2h0.2
		c0,0,0,0.1,0,0.1h0.7c0,0,0,0,0-0.1c0.1,0,0.1,0,0.1,0c0.1,0,0.2,0,0.2,0.1h1.5c0,0,0,0,0-0.1h3.5v0.1h0.8c0,0,0.1-0.1,0.2-0.1v0.1
		h0.8c0.1,0,0,0,0,0c0.1,0,0.1,0,0.2-0.1h0.5c0,0,0,0.1,0,0.1h0.7c0.1-0.1,0.1-0.1,0.2-0.1c0,0,0-0.1,0.1-0.1v0.1h0.8
		c0.1,0,0-0.1,0.1-0.1l0.3,0c-0.1,0,0,0,0,0.1c0,0,0,0,0,0.5l2.9,0c0,0,0-0.1,0-0.1h0.3v-0.3c0,0,0.1,0,0.1-0.1c0.1,0,0.1,0,0.1-0.1
		h1.6c0,0,0,0,0-0.1h0.5c0,0,0,0.1,0,0.1c0.1,0,0.2,0,0.2,0c0,0,0,0,0,0h0.8c0,0,0-0.1,0-0.1c0.1,0,0.1-0.1,0.2-0.1v0.1h0.7
		c0,0,0-0.1,0-0.1c0,0,0.1,0,0.1,0.1h1.5c0,0,0,0.1,0,0.1h0.9c0,0,0,0,0-0.1h1.3v0.1h0.8c0,0,0-0.1,0-0.1c0,0,0.1,0,0.1-0.1
		c0,0,0,0.1,0.1,0.1h1.6c0,0.3,0,0.4,0,0.5h-0.1c0,0,0,0.1-0.1,0.1l2.6,0v-0.2h0.2c0-0.1,0.1-0.1,0.1-0.2h0.5c0.1,0,0-0.1,0.1-0.1
		h0.9c0-0.1,0.1-0.1,0.1-0.1c0.1,0,0.1,0,0.1,0.1h0.8c0,0,0,0,0-0.1h0.2v0.1h0.7c0,0,0-0.1,0.2-0.1c0,0,0-0.1,0-0.1h0.1
		c0.1,0,0,0.1,0.1,0.1h1.4c0,0,0-0.1,0.1-0.1v0.2h0.8c0,0,0,0,0-0.1h0.1c0,0,0,0.1,0,0.1h0.7c0,0,0-0.1,0-0.1h0.3
		c0.1,0,0,0.1,0.1,0.1h1.2v0.1h0.8c0,0,0-0.1,0.3-0.1c0,0,0-0.1,0-0.1h0.5c0.1,0,0,0.1,0.1,0.1h1.1c0,0,0,0.1,0,0.1h0.7
		c0,0,0,0,0-0.1h0.4c0,0,0,0.1,0,0.1h0.9c0,0,0,0,0-0.1h0.4c0.1,0.1,0.1,0.1,0.1,0.1v0.1c0,0,0,0-0.1,0.1c0,0-0.1,0.1-0.1,0.1
		c0,0.1,0,0.1-0.1,0.2l2.8,0c0,0,0-0.1,0-0.1h0.1c0,0,0-0.1,0-0.1h0.1c0-0.1,0-0.1,0.1-0.2c0.1,0,0.2,0,0.2-0.1h0.6c0,0,0,0,0-0.1
		h0.7v0.1h0.8c0-0.1,0.1-0.1,0.1-0.2h0.1c0.1,0,0,0,0.1,0.1h0.7c0,0,0,0.1,0,0.1h0.9c0,0,0,0,0-0.1h0.8c0,0,0,0.1,0,0.1h0.7
		c0,0,0,0,0-0.1h1.7c0,0,0,0.1,0,0.1h1.2c0,0,0-0.1,0.1-0.1v0.1h1.2c0,0,0-0.1,0-0.1h0.5c0.1,0,0,0.1,0.1,0.1h0.6c0,0,0,0.1,0,0.1
		h0.8c0-0.1,0-0.1,0.1-0.1v0.2h0.7c0,0,0.1-0.1,0.1-0.1h0.4c0,0,0,0.1,0,0.1h0.7c0,0,0,0,0-0.1h1.1c0,0,0,0.1,0,0.1h0.7
		c0.1-0.1,0.1-0.1,0.2-0.1c0.1,0,0.1,0,0.2,0.1h0.9c0,0,0,0,0-0.1h0.8c0.1,0,0.1-0.1,0.1-0.1v0.1c0.1,0,0.2,0,0.3,0v0.2
		c-0.1,0.1-0.1,0-0.1,0.1c-0.2-0.1-0.2,0.1-0.2,0.2l3,0v-0.4c0.1-0.1,0.1-0.3,0.2-0.4h0.1c0-0.1,0-0.1,0-0.2h0.1v-0.3h0.2
		c0-0.1,0-0.2,0-0.2 M104.4,52.7v-0.3c0.1-0.1,0.1-0.1,0.1-0.1h0.1c0,0,0-0.1,0-0.2c0,0,0,0,0,0v-0.6h0.2v-0.3h2.9v0h-0.1v0.4
		c0,0.1,0,0,0,0c0,0.1,0,0.1,0,0.2c0,0,0,0-0.1,0v0.4c0,0.1-0.1,0.1-0.1,0.1h-0.1v0.5H104.4"/>
	<path class="st0" d="M178.3,46.4c0,0,0.1,0,0.1,0v0.9c0.2,0,0.2,0.1,0.4,0.1v0.2c0,0.1,0,0.1-0.1,0.1c0,0-0.1,0.1-0.1,0.1v0.1v0.6
		c0,0.1,0,0,0,0c0,0.1-0.1,0.1-0.1,0.2c-0.2,0-0.2,0.1-0.2,0.3h-0.2c-0.1,0.1,0.1,0.4-0.2,0.4c-0.1,0,0-0.1-0.1-0.1h-0.8
		c-0.1,0,0,0.1-0.1,0v-0.1h-0.8c0,0,0,0.1,0,0.1h-0.6c-0.1,0,0-0.1-0.1-0.1h-1.3c-0.1,0,0,0.1-0.1,0.1h-0.5c0,0.1-0.1,0.1-0.2,0.1
		c-0.1,0-0.1,0-0.2-0.1h-1.6c0,0,0,0.1-0.1,0.1v-0.1h-0.9c-0.1,0,0,0.1-0.1,0.1h-1.9c0,0,0,0,0,0.1h-0.5c0,0,0-0.1,0-0.1h-1.5
		c-0.1,0,0-0.1-0.1-0.1h-0.8c0,0,0,0.1,0,0.1c0,0,0-0.1-0.1-0.1h-1.5c-0.1,0,0-0.1-0.1-0.1h-0.9c-0.1,0,0,0.1-0.1,0.1h-0.6
		c0,0,0,0,0,0.1h-0.4c0,0,0-0.1,0-0.1h-0.6v-0.1h-0.8c-0.1,0.1-0.1,0.1-0.2,0.1H160v-0.2c0,0.1,0,0,0.1,0c0.1,0,0.2,0,0.2,0
		c0.1-0.1,0-0.3,0.1-0.3v-0.5h0.2v-0.4v-0.4c0,0,0.1,0,0.1,0c0-0.2,0.1-0.4,0.1-0.6h0.2v-0.5h-2.7c0,0.4-0.1,0.4-0.1,0.5
		c0,0,0,0,0,0.1h-0.2c0,0,0,0.1,0,0.1c-0.1,0-0.2,0.1-0.2,0.1v0.5h-0.2v0.3v0.6c0,0.1,0.1,0.1,0,0.1h-0.2c0,0.1,0,0.1,0,0.2h-0.1V49
		c-0.2-0.1-0.2,0.1-0.4,0.1c0,0,0,0.1,0,0.2c0,0-0.1,0-0.2,0.1h-0.3v-0.1h-0.8c0,0,0,0,0,0.1h-0.4c-0.2,0.2-0.1,0.1-0.2,0.1
		c-0.1,0-0.1,0-0.2-0.1h-0.5c-0.1,0,0-0.1-0.1-0.1h-0.7c0,0-0.1,0.1-0.2,0.1s-0.1-0.1-0.1-0.1h-0.9c-0.1,0,0,0.1-0.1,0.1H152
		c-0.1,0,0-0.1-0.1-0.1h-0.6c0,0,0-0.1,0-0.1h-0.8c0,0,0,0,0,0.1H150c-0.1,0,0,0.1-0.1,0.1h-0.6c0-0.1-0.1-0.1-0.1-0.1h-0.7
		c-0.1,0.2-0.1,0.2-0.2,0.2c-0.1,0-0.1,0-0.1-0.1h-2.5c-0.1,0,0-0.1-0.1-0.1h-0.7c-0.1,0,0,0.1-0.1,0.1H144c0,0,0,0,0,0.1h-0.6V49
		h0.2c0-0.1,0-0.1,0.1-0.2c0-0.7,0-0.6,0-0.7c0,0,0-0.1,0-0.1c0,0,0,0-0.1-0.1h0.2v-0.1v-0.2h0.2c0,0,0.1-0.1,0.1-0.1v-0.4
		c0.1,0,0.1-0.1,0.1-0.1v-0.5c0.1,0,0.1-0.3,0.2-0.2c0,0,0-0.1,0-0.1h-0.6h0.6c0-0.1,0-0.1,0-0.2h0.2v-0.6h0.2
		c0-0.2,0.1-0.3,0.1-0.5h0.2v-0.6h0.2c0-0.1,0-0.1,0-0.2c0.1-0.1,0.1-0.2,0.1-0.3c0,0,0.1-0.1,0.1-0.1c0-0.2,0.1-0.3,0.1-0.5
		c0,0,0,0,0.1,0c0,0,0-0.1,0-0.1l-2.5,0v0h-0.2v0.4c0,0.1-0.1,0.1-0.1,0.1c-0.2,0.1-0.1,0.3-0.1,0.4h-0.2v0.5h-0.1c0,0,0,0.1,0,0.1
		h-0.1c0,0.3-0.1,0.4-0.1,0.5c0,0-0.1,0-0.1,0.1h-0.1c0,0.1-0.1,0.3-0.1,0.4h-0.3c0,0.2,0,0.4,0,0.5c0,0.4,0,0.5,0,0.6h-0.1v0.4
		c0,0,0,0-0.1,0.1c-0.2,0-0.2,0.1-0.2,0.3H141v0.2v0.7h-0.1c0,0.1-0.1,0.3-0.1,0.4h-0.2c0,0,0,0.1,0,0.2c-0.1,0-0.1,0-0.2,0
		c0,0,0,0,0,0c0,0-0.1,0-0.1-0.1v0.2h-2.5c-0.1,0,0-0.1-0.1-0.1H137c-0.1,0,0,0.1-0.1,0.1h-1.4c0,0,0,0,0,0.1h-1.3c0,0,0-0.1,0-0.1
		h-0.4c-0.1,0,0-0.1-0.1-0.1h-0.7c0,0.1-0.1,0.1-0.1,0.1c0,0-0.1,0-0.1-0.1h-1.3c0,0,0,0,0,0.1H131c-0.1-0.1-0.1-0.1-0.2-0.1h-1.2
		v-0.1c0.1-0.1,0.1-0.1,0.1-0.1h0.1c0,0,0-0.1,0-0.2h0.2v-0.5c0,0,0.1,0,0.1,0c0-0.1,0.1-0.2,0.1-0.2c0,0,0-0.1,0.1-0.1
		c0,0,0-0.1,0-0.1c0-0.1,0-0.2,0-0.3c0.1,0,0.1-0.1,0.2,0v-0.2h0.2V47c0,0,0.1,0,0.1,0c0-0.1,0.1-0.2,0.1-0.2c0-0.1,0.1-0.4,0.3-0.4
		c0,0,0,0,0-0.1l-3,0c0,0.1,0,0.1,0,0.2c-0.1,0.1-0.2,0.2-0.3,0.4c-0.1,0.1-0.1,0.3-0.1,0.5h-0.2c0,0.1-0.1,0.2-0.1,0.3h-0.2
		c0,0-0.1,0.1-0.1,0.2v0v0.7h-0.2c0,0.1,0,0.1,0,0.2H127c-0.1,0.1-0.1,0.3-0.2,0.2c0,0,0,0.1,0,0.4H126c-0.1,0,0-0.1-0.1-0.1h-0.7
		c-0.1,0,0,0.1-0.1,0.1h-1.3c0,0,0,0,0,0.1h-1.1v-0.1H122c-0.1,0,0,0.1-0.1,0.1h-0.5c0,0,0,0,0,0.1c0,0-0.1,0-0.1-0.1h-2.5
		c-0.1,0,0-0.1-0.1-0.1H118c0,0.1-0.1,0.1-0.1,0.1h-0.2c0,0,0-0.1,0-0.1h-0.6c-0.1,0,0-0.1-0.1-0.1h-0.7c-0.1,0,0,0.1-0.1,0.1h-1.7
		c-0.1,0,0-0.1-0.1-0.1h-0.8c0,0,0,0.1,0,0.1h-0.2v-0.1h-1c-0.1,0,0,0.1-0.1,0.1h-0.8c0,0.1-0.2,0.1-0.3,0.1c0,0,0,0.1,0,0.1h-0.5
		v0.9c-0.1,0-0.3,0-0.2,0.2h-0.1c0,0-0.1,0.1-0.1,0.2v0.2h70.1c0-0.1,0.1-0.1,0.2-0.1v-0.6c0.1,0,0.1-0.2,0.3-0.2v-0.5h0.2v-0.5
		c0,0,0,0,0.1,0v-0.6c0-0.1,0.1-0.1,0.1-0.2h0.1v-0.6v-0.5c0,0,0,0,0.1,0v-0.4c0-0.1,0.1,0,0.1,0v-0.6L178.3,46.4
		C178.3,46.4,178.3,46.4,178.3,46.4"/>
	<path class="st0" d="M131.3,46.1c0.2,0,0.1-0.2,0.1-0.3h0.3c0,0,0-0.1,0-0.2h0.1c0,0,0-0.1,0-0.1h0.2v-0.3c0.1,0,0.1-0.1,0.2-0.1
		c0-0.1,0-0.2,0-0.3h0.1c0,0,0-0.1,0-0.2c0.1-0.1,0.3-0.1,0.3-0.4c0.1,0,0.1-0.1,0.1-0.1c0.2,0,0.1-0.1,0.2-0.2h0.3v-0.2
		c0.1,0,0.3-0.1,0.3-0.3l-3.2,0v0.3h-0.1c-0.1,0.1-0.1,0.2-0.2,0.2c0.1,0.1,0,0.2-0.1,0.2c0,0-0.1,0-0.1,0c-0.1,0.2-0.3,0.3-0.2,0.6
		c-0.1,0-0.2,0-0.3,0c0,0-0.1,0.1-0.1,0.1c0,0.5-0.1,0.6-0.1,0.7c0,0-0.1,0-0.1,0c-0.1,0.1,0,0.1-0.1,0.1c0,0.2,0,0.3-0.1,0.4
		c-0.1,0-0.2,0.1-0.2,0.3h-0.2c0,0.1,0,0.1,0,0.2h3C131.3,46.3,131.3,46.3,131.3,46.1"/>
	<path class="st0" d="M181.5,46.1v-0.2c0,0,0,0,0.1,0v-1.6c-0.2-0.1-0.3-0.3-0.3-0.6c-0.1,0-0.1,0-0.1,0c0,0,0-0.1,0-0.2
		c0,0,0,0-0.1,0c0,0,0-0.1,0-0.2l-3.8,0v0.4c0,0,0.1,0,0.5,0v0.8c0,0,0.1,0,0.1,0v0.4c0,0.1,0.1,0,0.1,0.1c0.1,0,0.2,0,0.2,0
		c0.1,1.1,0,1.1,0,1.1c0,0,0,0,0,0c0,0.1,0,0.2,0,0.3l3.3,0v-0.3C181.6,46.1,181.6,46.1,181.5,46.1"/>
	<path class="st0" d="M133.4,43.2h0.1c0-0.1,0-0.3,0.1-0.4h0.2c0-0.2,0.1-0.2,0.3-0.2c0-0.1,0-0.2,0-0.3c0,0,0.1,0,0.1,0
		c0-0.1,0.1-0.1,0.1-0.2c0.1,0,0.1-0.1,0.1-0.1h0.3v-0.3c0.1,0,0.3,0,0.3-0.2c0.1,0,0.1,0,0.2,0c0,0,0.1-0.1,0.1-0.1
		c0-0.1,0-0.2,0-0.3h0.2v-0.4h0.3c0,0,0-0.1,0-0.2h0.2c0,0,0-0.1,0-0.2c0.1,0,0.1-0.1,0.2-0.1c0,0,0-0.1,0-0.1l-3.4,0c0,0,0,0,0,0
		h-0.2v0.3h-0.1v0.3h-0.1c0,0,0,0.1,0,0.1H132c0,0,0,0.1,0,0.2c-0.1,0-0.2,0.1-0.3,0.1c0,0.2-0.1,0.2-0.1,0.4c0,0-0.2,0-0.1,0.1
		c-0.1,0-0.1,0-0.2,0c0,0.1,0,0.2,0,0.3c-0.1,0-0.2,0.1-0.2,0.1c0,0,0,0.1,0,0.2c-0.1,0.1-0.1,0.1-0.1,0.2h-0.2v0.3h-0.2v0.2
		c-0.1,0-0.2,0-0.2,0.2h-0.1v0.2L133.4,43.2C133.4,43.3,133.4,43.3,133.4,43.2"/>
	<path class="st0" d="M161.2,46.3v-1h0.2v-0.5c0-0.1,0,0,0.1,0v-1.4c0,0,0.1,0,0.1,0v-0.1V43c0.1,0,0.1-0.1,0.1-0.1v-1.3h0.1v-0.8
		c0,0-0.1-0.1-0.1-0.1v-0.6v0c-0.1,0-0.1,0-0.1-0.1c0-0.1,0-0.1,0.1-0.1v-1.6c-0.1,0-0.1,0-0.1-0.1v-0.5c0,0-0.1,0-0.1,0V37l-2.1,0
		c-0.1,0-0.1,0.1-0.1,0.2H159c0,0.2-0.1,0.3-0.3,0.3c0,0.1,0,0.2,0,0.3h-0.3v0.9c0,0,0.1,0,0.2,0v0.7c0,0,0.1,0,0.2,0v0.1
		c0,0-0.1,0-0.1,0v0.6v0.1c0,0,0.1,0,0.1,0.1c0,0,0,0.1-0.1,0.1v1.8c0,0.1,0.1,0,0.1,0v0.7c0,0.1-0.1,0-0.1,0v0.3V44
		c-0.2,0.1-0.1,0.4-0.2,0.4V45h-0.1v0.6h-0.1v0.6c0,0.1-0.1,0.1-0.1,0.1c0,0,0,0.1,0,0.1l2.7,0v0"/>
	<path class="st0" d="M181,43.1v-0.4c-0.1,0-0.1,0-0.2,0v-0.4c-0.1,0-0.2,0-0.3,0c0-0.1,0.1-0.3-0.1-0.3v-0.4
		c-0.1-0.1-0.2-0.1-0.3-0.2c0-0.1,0-0.2,0-0.2c-0.1,0-0.1-0.1-0.1-0.2c-0.1,0-0.1,0-0.2,0c0-0.1,0-0.2,0-0.2c0,0,0,0-0.1,0v-0.4
		h-0.4c0,0,0-0.1,0-0.1c0,0,0,0-0.1,0h0c0,0,0,0,0,0c-0.1,0-0.2,0-0.3,0c0-0.2,0-0.3-0.1-0.5c-0.2,0.1-0.3-0.1-0.3-0.3h-0.2V39
		c-0.1,0-0.1,0-0.2,0v-0.2c-0.2,0-0.3-0.1-0.5-0.1v-0.3c-0.1,0-0.2-0.1-0.3-0.1v-0.2c-0.1,0-0.1,0-0.1,0c0.1-0.2-0.1-0.3-0.3-0.3
		c0,0,0,0,0-0.1c-0.1,0-0.2,0-0.3,0v-0.4c-0.2,0-0.3,0-0.3-0.1c-0.1,0-0.2,0-0.3,0v-0.1h-0.3V37v-0.2c-0.2,0-0.4-0.1-0.6-0.1v-0.2
		h-0.3v-0.2c-0.1-0.1-0.2-0.1-0.3-0.1v-0.1c-0.1,0-0.1,0-0.2,0v-0.2h-0.3v-0.1h-0.5v-0.1c-0.1,0-0.1,0-0.1,0v-0.1
		c-0.1,0-0.1,0-0.2,0v0v-0.1c-0.1,0-0.1,0-0.2,0v-0.2h-0.6v-0.2c-0.2,0-0.3-0.1-0.4-0.1v-0.2c-0.1,0.1-0.3,0.1-0.3,0
		c0,0-0.1,0-0.5,0c-0.1-0.1-0.3-0.2-0.5-0.2c0,0-0.1-0.1-0.1-0.1c-0.1,0-0.2,0-0.3-0.1c-0.2,0-0.4-0.1-0.7-0.1v-0.2h-0.4
		c0-0.2-0.3,0-0.4-0.1v-0.3c-0.2,0-0.4,0-0.4-0.2h-0.4c0,0,0,0,0-0.1c-0.6,0-0.6,0-0.6,0c0-0.1-0.1-0.2-0.1-0.4h-0.8
		c0,0.1,0,0.1-0.1,0.1c-0.1,0-0.1,0-0.1,0v-0.2h-0.3v-0.2c-0.5,0-0.6,0-0.6,0c0-0.1-0.1-0.1,0-0.2c0,0,0,0,0,0h-0.8v-0.1h-0.4
		c-0.1,0,0-0.1-0.1-0.1h-0.8c0,0,0,0,0-0.1H163v-0.1h-0.6c-0.1,0,0,0,0,0c-0.1,0-0.1,0-0.2,0c0,0,0,0,0-0.1h-0.4
		c0,0-0.1-0.1-0.1-0.1h-0.4v-0.1H160v-0.1c-0.1,0-0.1,0-0.2-0.1H159v-0.1h-0.8c-0.1,0,0-0.1-0.1-0.1h-0.4c0,0,0,0,0-0.1h-1.6v-0.1
		h-0.6c-0.1,0,0-0.1-0.1-0.1h-1c-0.1,0,0,0,0,0c-0.1,0-0.2,0-0.2,0c0,0,0,0,0-0.1h-1.6c0-0.1,0.1-0.1,0.1-0.1c0,0,0.1,0,0.1,0
		c0,0,0.1,0,0.1-0.1c0,0,0-0.1,0.1-0.1c0-0.1,0-0.2,0-0.3c0,0,0.1,0,0.2,0c0.1,0,0.1-0.1,0.1,0v-0.9l-3.3,0c0,0.1,0,0.1,0,0.2
		c-0.1,0-0.3-0.1-0.3,0.1h-0.4c0.1,0.2-0.1,0.4-0.3,0.3c0,0.1,0,0.1,0,0.1h-0.1c0,0.3-0.4,0.2-0.6,0.2c0,0.1,0,0.1,0,0.1h-0.2
		c0,0.1,0,0.2,0,0.2c-0.3-0.1-0.4,0.2-0.5,0.3c-0.1,0-0.2,0-0.3,0c-0.2,0-0.4,0.1-0.6,0.1c0,0.3-0.2,0.2-0.4,0.3
		c0,0.1-0.1,0.1-0.1,0.2c0,0-0.1,0-0.1,0c0,0.1,0,0.1,0,0.1c-0.2,0-0.2,0.1-0.4,0.1c0,0,0,0,0,0.1c-0.1,0-0.2,0-0.3,0
		c0,0.1,0,0.1,0,0.1v-0.6c-0.1,0-0.2,0-0.2,0v-0.4h-0.8c-0.1,0,0,0.1-0.1,0.1h-0.6c0,0.1,0,0.1-0.1,0.1c-0.1,0-0.1,0-0.1-0.1h-3.2
		c0,0.1,0,0.1,0,0.1h-0.9c0,0,0,0.1,0,0.1h-0.6c-0.1,0,0,0.1-0.1,0.1h-0.5c-0.1,0.1-0.2,0.1-0.2,0.1c0,0,0,0,0,0h-0.7
		c-0.1,0,0-0.1-0.1-0.1h-0.8v0.2l0,0c-0.1,0-0.2,0-1.1,0c0,0.2-0.3,0-0.3,0.2h-0.6c-0.1,0.2-0.4,0.1-0.4,0.2h-1
		c-0.1,0,0,0.1-0.1,0.1h-0.4c0,0.1,0,0.1,0,0.1h-0.4c0,0,0,0.1,0,0.1h-0.9c0,0.1,0,0.1,0,0.1h-0.7c0,0.1,0,0.1,0,0.1
		c0,0,0,0-0.1,0.1c-0.1,0-0.1,0-0.2,0c0,0,0,0,0,0h-0.5c-0.1,0.1-0.2,0.1-0.2,0.2h-0.4c0,0.1-0.1,0.1-0.1,0.2h-0.6c0,0,0,0.1,0,0.1
		h-0.6c0,0.1-0.1,0.1-0.1,0.1c0,0,0,0,0.1,0l-0.2,0.2H127c0,0.1,0,0.1,0,0.1c-0.1,0-0.1,0-0.2,0.1h-0.8c0,0,0,0.1-0.1,0.1
		c0,0.1,0,0.2,0,0.2c-0.3,0-0.3,0.1-0.3,0.1H125c0,0,0,0.1-0.1,0.1c0,0.1,0,0.1,0,0.1h-0.2c0,0.1-0.1,0.1-0.1,0.1h-0.5
		c0,0.1-0.1,0.1-0.1,0.2h-0.6c0,0.1,0,0.1,0,0.2c-0.1,0-0.2,0.1-0.2,0.1c0,0.1,0,0.1,0,0.1h-0.6c-0.1,0.1-0.1,0.1-0.2,0.1
		c0,0.1,0,0.1,0,0.1h-0.2c0,0.1,0,0.1,0,0.1c-0.1,0-0.3-0.1-0.4,0.1h-0.6c-0.1,0.1-0.1,0.2-0.1,0.2h-0.2c0,0,0,0,0,0l5.3,0l-5.3,0
		c0,0.1,0,0.1,0,0.2h-0.5c0,0.1,0,0.1-0.1,0.3h-0.5c0,0,0,0.1,0,0.1h-0.4c0,0.1,0,0.2,0,0.3h-0.1v0.1c-0.1,0-0.1,0-0.2,0.1h-0.6
		c0,0.2-0.2,0.1-0.3,0.2c0,0,0,0.1,0,0.1c-0.1,0-0.2,0.1-0.2,0.1c-0.1,0-0.1,0-0.2,0l5.9,0l-5.9,0c0,0,0,0-0.1,0v0.2h-0.3
		c0,0.1,0,0.1,0,0.2c-0.4-0.2-0.4,0.3-0.7,0.3c0,0.1,0,0.1,0,0.2h-0.6c0,0.2-0.2,0.1-0.2,0.1c0,0.1,0,0.1,0,0.1h-0.2
		c0,0.1,0,0.1,0,0.2h-0.2c0,0.1,0,0.1,0,0.2h-0.2c0,0.1-0.1,0.1-0.1,0.2h-0.1c0,0.1-0.1,0.1-0.1,0.2h-0.5c0,0.1,0,0.1,0,0.1h-0.1
		c0,0.1,0,0.1,0,0.2c-0.1-0.1-0.1,0.1-0.2,0.1c0,0.1,0,0.1,0,0.2c0,0-0.1,0-0.1,0c-0.1,0.1-0.1,0.1-0.3,0.2c0,0.1,0,0.1,0,0.1h-0.2
		v0.1c-0.1,0-0.2,0-0.2,0.1c0,0-0.1,0-0.2,0c0,0,0,0.1,0,0.1c0,0,0,0.1,0,0.1c-0.2,0-0.4,0-0.4,0.2c-0.2,0-0.1,0.2-0.3,0.3
		c0,0.1,0,0.1,0,0.2c-0.1,0-0.1,0.1-0.2,0.1c0,0.1,0,0.1,0,0.1h-0.4c-0.1,0.1-0.2,0.1-0.2,0.1c0,0.1,0,0.1,0,0.1
		c-0.3-0.1-0.4,0.2-0.4,0.4h-0.2c0,0.1-0.1,0.2-0.1,0.3h-0.1v0.3h-0.3c0,0.1,0,0.2,0,0.3c-0.1,0.1-0.3,0.1-0.4,0.1
		c0,0.1,0.1,0.3-0.1,0.4c0,0.1,0,0.1,0,0.2h-0.2c0,0.1,0,0.1,0,0.2h1.2l-1.2,0c0,0,0,0,0,0c-0.1,0-0.2,0.1-0.2,0.1
		c0,0.2-0.1,0.3-0.3,0.3v0.2h-0.1c0,0.1-0.1,0.1-0.2,0.1v0.3h-0.3c0,0.1,0,0.1,0,0.2h-0.1c0,0.1,0,0.1-0.1,0.2c0,0.1,0,0.2,0,0.2
		H108c0,0.1,0,0.1,0,0.2h-0.3c0,0.1,0,0.2,0,0.2c-0.1-0.1-0.2,0.1-0.2,0.1c0,0.1,0,0.2,0,0.3h-0.1c0,0.1,0,0.3-0.2,0.3v0.3v0h-0.3
		v0.4c-0.1,0-0.1,0.1-0.2,0.1c0,0,0,0.1,0,0.1c-0.1,0.1-0.1,0.1-0.2,0.1c0,0.1,0,0.1,0,0.2h-0.1v0.4h-0.3v0.2v0.4c0,0.1,0,0,0,0
		c0,0.1,0,0.2,0,0.3h-0.2v0.3h-0.3v0.4c0,0,0,0-0.1,0v0.4c0,0.1,0,0,0,0c0,0.1,0,0.1,0,0.2h-0.2c0,0.1,0,0.1,0,0.2h-0.1v0.6h-0.2
		c0,0.1,0,0.1-0.1,0.1v0.2h2.9v-0.5c0.1,0,0.1-0.1,0.2-0.1V50h0.2c0,0,0-0.1,0-0.2h0.1v-0.3h0.1c0-0.1,0.1-0.2,0.2-0.3
		c0.1,0,0.1-0.1,0.1-0.1c0-0.1,0-0.2,0.1-0.4h0.1v-0.3h0.2c0-0.1,0.1-0.3,0.1-0.4h0.1v0v-0.3h0.3c0.1-0.1,0.1-0.3,0.1-0.4h0.2v-0.4
		c0.1,0,0.1-0.1,0.1-0.1h0.1c0,0,0-0.1,0-0.1c0.1,0,0.1-0.1,0.2-0.2h0c0-0.1,0.1-0.1,0.2-0.1c0-0.1,0-0.2,0-0.3h0.1
		c0-0.1,0-0.1,0-0.2h0.2v-0.3c0.1,0,0.2,0.1,0.3-0.1c0.2,0.1,0.3-0.1,0.3-0.3h0.1c0,0,0-0.1,0-0.1c0.1,0,0.1-0.1,0.3-0.1
		c0-0.1,0-0.2,0-0.3c0.1,0,0.2-0.1,0.2-0.1c0-0.1,0-0.2,0-0.3h0.1c0-0.3,0.2-0.3,0.4-0.3c0,0,0-0.1,0-0.1c0.1,0,0.1-0.1,0.1-0.2h0.1
		c0,0,0-0.1,0-0.1h0.1c0-0.1,0-0.2,0.1-0.3h0c0,0,0.1-0.1,0.1,0v-0.1c0.1,0,0.4,0,0.3-0.3h0.2c0,0,0-0.1,0-0.1h0.2c0,0,0-0.1,0-0.2
		h0.4c0.1-0.1,0.1-0.2,0.2-0.2c0,0,0-0.1,0-0.2c0.1,0,0.2-0.1,0.2-0.1c0.1,0,0.2-0.1,0.3-0.1v-0.2c0,0.1,0.1,0,0.1,0
		c0,0,0.1,0,0.1,0c0-0.2,0.2-0.2,0-0.3h0.7c0,0,0.1-0.1,0.1-0.2h0.1c0-0.1,0-0.2,0.1-0.3h0.2c0,0,0-0.1,0-0.1h0.2c0,0,0-0.1,0-0.2
		h0.3c0.1-0.1,0.1-0.2,0.2-0.2v-0.1c0.2,0.1,0.2-0.1,0.2-0.2l-1.9,0l1.9,0c0,0,0,0,0,0h0.6c0,0,0.1-0.1,0.1-0.2h0.3v-0.2
		c0.1-0.1,0.5,0,0.4-0.3c0.2,0,0.4-0.1,0.6-0.1c0,0,0-0.1,0-0.2h0.2c0,0,0-0.1,0-0.1h0.5c0,0,0-0.1,0.2-0.1c0,0,0-0.1,0-0.1h0.1
		c0-0.1,0-0.1,0-0.2c0,0,0.2,0,0.1-0.1c0.1,0,0.3-0.1,0.4-0.1c0-0.1,0.1-0.1,0.1-0.3c0.1,0,0.1,0,0.1-0.1h0.9c0,0,0.1-0.1,0.1-0.1
		c0,0,0-0.1,0-0.2h0.3v-0.3c0.1,0,0.1,0,0.2-0.1h0.8c0.1-0.1,0.1-0.1,0.2-0.1c0-0.1,0.1-0.1,0.1-0.2c0.1,0,0.3,0,0.3-0.1h0.4
		c0,0,0,0,0.1,0h0c0,0,0-0.1,0-0.1c0.1,0,0.2,0,0.2-0.1h0.6c0,0,0,0,0-0.1h0.5c0,0,0-0.1,0-0.1h0.5v-0.3c0.2,0,0.4-0.1,0.6-0.1
		c0,0,0.1-0.1,0.2-0.1V36h0.5c0.1,0-0.1-0.1,0.3-0.1c0,0,0-0.1,0-0.1h0.6c0-0.1,0-0.1,0-0.2h0.2c0,0,0-0.1,0-0.1h0.5c0,0,0,0,0,0h0
		c0,0,0-0.1,0.1-0.1h0.9c0,0,0,0,0-0.1h0.4c0.1,0,0,0,0,0c0.1,0,0.2,0,0.3-0.1h0.5c0.1-0.1,0.2-0.1,0.2-0.2h0.5c0,0,0.1-0.1,0.1-0.1
		h1.1c0.1,0-0.1-0.1,0.3-0.1c0,0,0-0.1,0-0.1h1.2c0,0,0,0,0-0.1h0.6c0,0,0-0.1,0-0.1h0.7c0,0,0,0,0-0.1h0.8c0.1,0,0-0.1,0.1-0.1h0.6
		c0,0,0-0.1,0-0.1h0.5c0.1,0,0.1,0,0.1,0c0.1,0,0.2,0,0.2,0.1h-0.2c0,0,0,0.1,0,0.2h-0.5c0,0,0,0.1,0,0.2c-0.1,0-0.1,0.1-0.3,0.1
		v0.1c-0.1,0-0.2,0-0.2,0.2c-0.1,0-0.1,0.1-0.2,0.1c0,0.1,0,0.2,0,0.2c0,0-0.1,0-0.1,0c-0.1,0-0.2,0-0.3,0.1c0,0.1-0.1,0.1,0,0.2
		h-0.3c0,0,0,0.1,0,0.1h-0.1c0,0,0,0.1,0,0.2h-0.1c0,0,0,0.1,0,0.2c-0.3-0.1-0.3,0.3-0.5,0.2v0.1c-0.1,0-0.1,0.1-0.2,0.1
		c0,0,0,0.1,0,0.1c-0.1,0-0.2,0.1-0.2,0.2l4.3,0c0,0,0,0,0,0h0.1v-0.2c0.2,0.1,0.3-0.1,0.3-0.2h0.2c0,0,0-0.1,0-0.2
		c0.1-0.1,0.2-0.1,0.1-0.2c0.2,0,0.3-0.1,0.4-0.1c0,0,0-0.1,0-0.2c0.1,0,0.1-0.1,0.1-0.2c0.2,0,0.4,0,0.4-0.2c0,0,0,0,0,0
		c0.2,0,0.3-0.1,0.5-0.1c0,0,0-0.1,0-0.1c0.1,0,0.3-0.1,0.5-0.1c0,0,0-0.1,0-0.2h0.3c0-0.1,0.1-0.1,0.1-0.3c0.1,0,0.2-0.1,0.4-0.1
		c0-0.1,0-0.2,0-0.3h0.4c0.1,0,0-0.1,0.1-0.1h0.4v-0.2c0.2,0.1,0.3-0.1,0.3-0.3c0.1,0,0.2,0,0.2-0.1c0,0,0-0.1,0-0.2
		c0.1-0.1,0.1-0.2,0.1-0.3v0.1h0.4c0,0.2,0.1,0.3,0.1,0.4c0,0,0.1,0,0.2,0c0,0.1,0.1,0.1,0.1,0.2c0,0,0.1,0,0.2,0v0.4h0.5
		c0,0.1,0.1,0.3,0.1,0.4c0,0,0.1,0,0.2,0V35h0.3v0.2c0.1,0,0.2,0,0.4,0v0.2v0.2c0.1,0,0.1,0,0.2,0V36c0.1,0,0.2,0.1,0.5,0.1v0.2
		c0.1,0,0.3,0.1,0.4,0.1c0.1,0.2,0.2,0,0.3,0.1V37v0v0.1c0,0,0.1,0,0.2,0c0.1,0.2,0.2,0,0.3,0.1c0,0.1,0,0.1,0,0.2
		c0.1,0.1,0.1,0.3,0.1,0.5c0,0,0.1,0,0.8,0c0,0,0-0.1,0-0.1c0.2,0.1,0.2-0.2,0.4-0.2c0,0,0-0.1,0-0.5h0.1c0,0,0-0.1,0-0.1
		c0-0.3,0.1-0.5,0.2-0.8h0.2v-0.8v-0.4c0,0,0.1,0,0.1,0v-0.6h0.1c0-0.2,0.1-0.2,0.3-0.2c0,0,0-0.1,0-0.4c0.1,0,0.1-0.1,0.2-0.1h0.6
		c0.1,0,0,0.1,0.1,0.1h0.8c0.1,0,0,0,0-0.1c0,0,0.1,0.1,0.1,0.1h0.4V34h0.8c0,0,0-0.1,0-0.1h0.2V34h1.3c0,0,0,0,0-0.1
		c0.1,0.1,0.2,0.1,0.3,0.1h0.5c0,0.1,0.1,0.1,0.1,0.1h1.1v0.1h0.6v0.1h1.3c0.1,0,0,0,0,0c0,0,0.1,0,0.2,0c0.1,0.1,0.2,0.1,0.3,0.1
		c0.1,0.2,0.2,0,0.3,0.1v0.2h0.3v0.2h0.9c0-0.1,0.1-0.1,0.1-0.1c0,0,0.1,0,0.1,0.1c0.1,0,0.2,0,0.3,0c0.1,0.1,0.1,0.1,0.2,0.2
		c0,0,0.1,0.1,0.1,0.1h0.9c0,0,0,0,0,0c0,0,0,0,0,0c0.3,0,0.4,0,0.4,0c0.1,0.1,0.2,0.1,0.4,0v0.3h0.9c0,0.2,0.3,0.1,0.3,0.2h0.6v0.2
		c0,0,0.1,0,0.2,0.1c0.1,0,0.2,0,0.2,0c0,0,0,0,0,0h0.8v0.2h0.3v0.1c0.1,0,0.2,0,0.3,0c0.1,0.1,0.2,0.1,0.3,0.1c0,0.1,0,0.1,0,0.2
		c0,0.1,0,0.1,0.1,0.2h0.6c0,0.1,0.1,0.1,0.1,0.2c0,0,0.1,0.1,0.1,0.1h0.6c0,0.1,0.1,0.1,0.1,0.2c0.2,0,0.3,0.1,0.5,0.1v0.1h0.4
		c0,0,0,0.1,0.1,0.1v0.3h0.8v0.2h0.5v0.3h0.4v0.3h0.4c0,0,0,0.1,0,0.1h0.4c-0.1,0.1,0,0.1,0,0.2c0.1,0,0.2,0,0.3,0
		c0,0.1,0,0.2,0.1,0.2h0.4c0,0.1,0,0.2,0,0.2c0,0,0.1,0.1,0.1,0.1h0c0,0,0,0,0,0c0,0.1,0,0.2,0,0.3c0.2,0,0.3,0.1,0.5,0.1v0.1
		c0.1,0,0.1,0,0.2,0c0,0.1,0.2,0.1,0.3,0.1c0,0.1,0,0.2,0,0.2c0,0,0,0,0.1,0c0,0.1,0,0.1,0,0.2c0.1,0,0.2,0,0.3,0.1
		c-0.1,0.2,0.1,0.2,0.2,0.4h0.4c0,0.1,0,0.1,0.1,0.2v0.5c0,0,0.1,0,0.1,0c0,0.1,0.1,0.2,0.1,0.3c0.1,0,0.2,0,0.3,0v0.3
		c0.1,0,0.2,0,0.2,0c0,0.1,0.1,0.1,0.1,0.1c0,0,0,0.1,0.1,0.1v0.1h3.8C181.1,43.2,181.1,43.1,181,43.1"/>
	<path class="st0" d="M133.8,39h-0.3v0.3h-0.2v0.3h-0.1c0,0,0,0.1,0,0.2H133c0,0,0,0.1,0,0.2h-0.2c0,0,0,0.1,0,0.2l3.4,0
		c0,0,0,0,0-0.1h0.2c0-0.1,0-0.2,0-0.3c0.1,0,0.1-0.1,0.1-0.1c0.1,0,0.3-0.1,0.4-0.1c0,0,0-0.1,0-0.2h0.2c0-0.1,0-0.1,0-0.2h0.3
		c0-0.1,0-0.1,0-0.2c0.1-0.1,0.1-0.2,0.1-0.2h0.2v-0.3c0.1,0,0.2,0,0.3,0c0,0,0,0,0-0.1c0.1,0,0.1,0,0.2,0c0,0,0-0.1,0-0.1
		c0.2,0,0.2-0.1,0.2-0.3c0.1,0,0.3-0.1,0.2-0.2c0,0,0.2,0,0.1-0.1c0.1,0,0.2,0,0.3,0c0,0,0-0.1,0-0.1h0.2c0-0.1,0.1-0.2,0.1-0.3h0.4
		c0,0,0-0.1,0-0.2l-4.3,0c0,0,0,0,0,0h-0.1v0.3h-0.3c0,0,0,0.1,0,0.1H135v0.4c-0.3-0.1-0.3,0.2-0.4,0.3c0,0-0.1,0-0.2,0
		c0,0,0,0.1,0,0.1h-0.1c0,0.1,0,0.1,0,0.2c-0.2-0.1-0.2,0.2-0.3,0.1c0,0,0,0.1,0,0.2h-0.1C133.8,38.8,133.8,38.9,133.8,39"/>
	<path class="st0" d="M145.9,43.2v-0.4c0-0.1,0,0,0,0c0-0.1,0-0.1,0-0.2c0.1,0,0.1-0.1,0.1-0.1c0.4,0.1,0.3-0.1,0.3-0.4
		c0.1-0.1,0-0.2,0.1-0.3h0.2v-0.5c0.1,0,0.1-0.1,0.2-0.2v-0.3c0-0.1,0.1-0.1,0.1-0.2c0,0,0-0.1,0-0.2h0.2c0-0.1,0-0.2,0.1-0.3
		c0-0.1,0-0.1,0-0.2c0.1,0,0.1-0.1,0.1-0.1v-0.5h0.4v-0.6c0.1,0,0.1-0.1,0.2-0.1c0,0,0-0.1,0-0.7c0.1-0.1,0.1-0.2,0.1-0.3
		c0,0,0.1,0,0.1,0V37h-2.2c0,0,0,0,0,0h-0.2c-0.1,0,0,0.1,0,0.1c0,0,0,0-0.1,0c0,0.1-0.1,0.3-0.1,0.4c-0.1,0-0.2,0.2-0.1,0.3h-0.1
		c0,0.2-0.1,0.2-0.2,0.3c0,0.5-0.1,0.5-0.1,0.5c0,0,0,0,0,0.1h-0.2c-0.1,0.1,0,0.2-0.1,0.2v0.4h-0.1c0,0,0,0.1,0,0.2h-0.2v0.5v0.1
		c-0.1,0-0.1,0.1-0.2,0.1v0.4c-0.2,0,0,0.4-0.2,0.4v0.4H144v0.5h-0.1c0,0,0,0.1,0,0.1h-0.2c0,0.1,0,0.2,0,0.3
		c-0.1,0.1-0.2,0.2-0.2,0.3v0.7L145.9,43.2C145.9,43.2,145.9,43.2,145.9,43.2"/>
	<path class="st0" d="M161.4,36.9c0,0-0.1,0-0.1,0c0-0.1,0-0.2,0-0.3c0-0.1-0.2-0.1-0.3-0.1c0,0,0,0,0-0.1h-0.9c0,0,0,0.1,0,0.1
		h-0.2c0,0,0,0.1,0,0.1c0,0-0.2,0-0.1,0.1c-0.1,0-0.1,0-0.2,0c0,0,0,0.1,0,0.2c0,0-0.1,0-0.1,0L161.4,36.9"/>
	<path class="st0" d="M147.2,36.5C147.1,36.5,147.1,36.6,147.2,36.5c-0.1,0.1-0.3,0.1-0.3,0.1h-0.6c0,0,0,0,0,0.1
		c-0.2,0-0.3,0.1-0.3,0.3l2.2,0v-0.5"/>
	<path class="st0" d="M153.6,29.2c0-0.1,0.1-0.3,0.3-0.2c0-0.1,0-0.1,0-0.2h0.2v-1.4h-0.7c0,0.1,0,0.1,0,0.1h-0.4c0,0.1,0,0.1,0,0.1
		h-0.2c0,0.1,0,0.2,0,0.3c-0.1,0-0.4,0-0.4,0.2H152c0,0.3,0,0.4,0,0.4h-0.6c0,0.1-0.1,0.1-0.1,0.1c0,0.2-0.1,0-0.2,0.2
		c-0.3,0-0.3,0-0.3,0c-0.1,0.1-0.3,0.1-0.4,0v0.4h-0.3c0,0,0,0,0,0h3.3v0"/>
	<g>
		<path class="st1" d="M6.6,13.3c-0.3,0-5-0.2-5.8-0.2c0.1-1,0.1-4.8,0.1-5.2V5.5c0-0.3,0-4.7-0.1-5.1h2.6c0,0.4-0.1,4.1-0.1,6.3v4
			c0.3,0,2,0,3.3-0.1L6.6,13.3z"/>
	</g>
	<g>
		<path class="st1" d="M14.7,13.3c-0.4,0-5.3-0.2-5.8-0.2c0-1,0-4.8,0-5.2V5.5c0-0.3,0-4.6,0-5.1c0.6,0,5-0.3,5.5-0.3l0.1,2.3
			c-0.5,0-2.9,0.1-3.1,0.1v3.3c0.3,0,2-0.1,2.6-0.2l0,2.3c-0.3,0-2.4-0.1-2.7-0.1v3.1c0.4,0,2.4,0,3.3-0.1L14.7,13.3z"/>
	</g>
	<g>
		<path class="st1" d="M17.6,5.2c0-0.4,0-4.3-0.1-4.8c1.9,0,3.5,0.1,4.8,0.3c4.2,0.7,4.8,3.2,4.8,4.6c0,5.6-5.5,8-9.6,8
			c0.1-0.8,0.1-5.3,0.1-5.8V5.2z M20.1,10.6c2.4-0.4,4.4-2.3,4.4-4.8c0-2.4-2-3.2-4.4-3.1V10.6z"/>
	</g>
	<g>
		<path class="st2" d="M39.3,13.3c-0.3,0-5-0.2-5.8-0.2c0.1-1,0.1-4.8,0.1-5.2V5.5c0-0.3,0-4.7-0.1-5.1H36C36,0.8,36,4.5,36,6.7v4
			c0.3,0,2,0,3.3-0.1L39.3,13.3z"/>
	</g>
	<g>
		<path class="st2" d="M41.6,13.1c0-0.8,0-5,0-5.5V5.7c0-0.3,0-4.9-0.1-5.3h2.6c0,0.3-0.1,3.2-0.1,5.3v1.9c0,1.8,0,5,0.1,5.4H41.6z"
			/>
	</g>
	<g>
		<path class="st2" d="M53.4,13.3c-0.4,0-5.3-0.2-5.8-0.2c0-1,0-4.8,0-5.2V5.5c0-0.3,0-4.6,0-5.1c0.6,0,5-0.3,5.5-0.3l0.1,2.3
			c-0.5,0-2.9,0.1-3.1,0.1v3.3c0.3,0,2-0.1,2.6-0.2l0,2.3c-0.3,0-2.4-0.1-2.7-0.1v3.1c0.4,0,2.4,0,3.3-0.1L53.4,13.3z"/>
	</g>
	<g>
		<path class="st2" d="M63.3,13.3c-0.5,0.1-1.1,0.2-1.8,0.2c-4.8,0-6.3-3.3-6.3-5.4c0-3,2.2-6.7,7.2-7.9l0.5,2.7
			c-3.1,0.6-5,2.6-5,4.8c0,1.7,1.3,3.2,3.8,3.2c0.6,0,1.1-0.1,1.5-0.2L63.3,13.3z"/>
	</g>
	<g>
		<path class="st2" d="M65.7,13.1c0-0.8,0-5,0-5.5V5.7c0-0.3,0-4.9-0.1-5.3h2.6c0,0.3-0.1,3.9-0.1,4.2v1L73,5.3v-1
			c0-0.3,0-3.4-0.1-3.8h2.6c0,0.4-0.1,5.4-0.1,5.8v1.8c0,0.2,0,4.7,0.1,5.1H73c0-0.6,0.1-3.7,0.1-4V7.6l-4.8,0.3v0.8
			c0,0.8,0,4,0.1,4.4H65.7z"/>
	</g>
	<g>
		<path class="st2" d="M80.7,13.1c0-0.5,0.1-4.1,0.1-6.5V2.8c-1.1,0-3.1,0.1-3.6,0.1V0.4c0.6,0.1,4.1,0.2,4.2,0.2h1.3
			c0.3,0,3.4-0.1,4.1-0.2v2.5c-0.3-0.1-2.9-0.1-3.6-0.1V7c0,2.6,0.1,5.8,0.1,6.2H80.7z"/>
	</g>
	<g>
		<path class="st2" d="M94.3,13.3c-0.4,0-5.3-0.2-5.8-0.2c0-1,0-4.8,0-5.2V5.5c0-0.3,0-4.6,0-5.1c0.6,0,5-0.3,5.5-0.3l0.1,2.3
			c-0.5,0-2.9,0.1-3.1,0.1v3.3c0.3,0,2-0.1,2.6-0.2l0,2.3c-0.3,0-2.4-0.1-2.7-0.1v3.1c0.4,0,2.4,0,3.3-0.1L94.3,13.3z"/>
	</g>
	<g>
		<path class="st2" d="M96.7,13.1c0-0.7,0.2-3.4,0.3-6.2c0.1-2.8,0.2-5.8,0.3-6.9L97.4,0c1.4,1.4,7,7.5,7.4,8.1c0-0.7,0-7,0.1-7.8
			l2.3,0.1c-0.1,1-0.2,3.5-0.3,6.1c-0.1,2.6-0.2,5.3-0.2,6.9l-0.1,0.1c-1.2-1-7.2-7.8-7.4-8.1h0c0,0.6-0.1,7.2-0.1,7.8L96.7,13.1z"
			/>
	</g>
	<g>
		<path class="st2" d="M109.8,11.1c1.4-0.1,3-0.8,3-1.8c0-0.6-0.3-0.9-1.4-1.7c-1-0.7-2-1.6-2-3c0-2,2.1-4,5.1-4.5l0.3,2.4
			c-1.4,0.1-2.8,0.6-2.8,1.7c0,0.6,0.7,1,1.5,1.6c0.9,0.6,2,1.3,2,2.9c0,1.9-1.6,4.2-5.3,4.9L109.8,11.1z"/>
	</g>
	<g>
		<path class="st2" d="M119.7,13.1c0-0.5,0.1-4.1,0.1-6.5V2.8c-1.1,0-3.1,0.1-3.6,0.1V0.4c0.6,0.1,4.1,0.2,4.2,0.2h1.3
			c0.3,0,3.4-0.1,4.1-0.2v2.5c-0.3-0.1-2.9-0.1-3.6-0.1V7c0,2.6,0.1,5.8,0.1,6.2H119.7z"/>
	</g>
	<g>
		<path class="st2" d="M133.2,13.3c-0.4,0-5.3-0.2-5.8-0.2c0-1,0-4.8,0-5.2V5.5c0-0.3,0-4.6,0-5.1c0.6,0,5-0.3,5.5-0.3l0.1,2.3
			c-0.5,0-2.9,0.1-3.1,0.1v3.3c0.3,0,2-0.1,2.6-0.2l0,2.3c-0.3,0-2.4-0.1-2.7-0.1v3.1c0.4,0,2.4,0,3.3-0.1L133.2,13.3z"/>
	</g>
	<g>
		<path class="st2" d="M136.1,13.1c0-0.8,0-5,0-5.5V5.7c0-0.3,0-4.9-0.1-5.3h2.6c0,0.3-0.1,3.2-0.1,5.3v1.9c0,1.8,0,5,0.1,5.4H136.1
			z"/>
	</g>
	<g>
		<path class="st2" d="M141.7,13.1c0-0.7,0.2-3.4,0.3-6.2c0.1-2.8,0.2-5.8,0.3-6.9l0.1-0.1c1.4,1.4,7,7.5,7.4,8.1c0-0.7,0-7,0.1-7.8
			l2.3,0.1c-0.1,1-0.2,3.5-0.3,6.1c-0.1,2.6-0.2,5.3-0.2,6.9l-0.1,0.1c-1.2-1-7.2-7.8-7.4-8.1h0c0,0.6-0.1,7.2-0.1,7.8L141.7,13.1z"
			/>
	</g>
	<g>
		<path class="st2" d="M0.8,22.4c0-0.4,0-4.3-0.1-4.8c1.9,0,3.5,0.1,4.8,0.3c4.2,0.7,4.8,3.2,4.8,4.6c0,5.6-5.5,8-9.6,8
			c0.1-0.8,0.1-5.3,0.1-5.8V22.4z M3.3,27.8c2.4-0.4,4.4-2.3,4.4-4.8c0-2.4-2-3.2-4.4-3.1V27.8z"/>
	</g>
	<g>
		<path class="st2" d="M18.6,30.5c-0.4,0-5.3-0.2-5.8-0.2c0-1,0-4.8,0-5.2v-2.4c0-0.3,0-4.6,0-5.1c0.6,0,5-0.3,5.5-0.3l0.1,2.3
			c-0.5,0-2.9,0.1-3.1,0.1V23c0.3,0,2-0.1,2.6-0.2l0,2.3c-0.3,0-2.4-0.1-2.7-0.1v3.1c0.4,0,2.4,0,3.3-0.1L18.6,30.5z"/>
	</g>
	<g>
		<path class="st2" d="M22.1,17.3c0.3,0.8,2.9,7.6,3.2,8.6c0.4-1,3.2-8.1,3.4-8.6l2.3,1.5c-0.5,1-4.9,10.5-5.8,12.2h-0.1
			c-1-1.9-4.9-11.3-5.4-12.2L22.1,17.3z"/>
	</g>
	<g>
		<path class="st2" d="M38.5,30.5c-0.4,0-5.3-0.2-5.8-0.2c0-1,0-4.8,0-5.2v-2.4c0-0.3,0-4.6,0-5.1c0.6,0,5-0.3,5.5-0.3l0.1,2.3
			c-0.5,0-2.9,0.1-3.1,0.1V23c0.3,0,2-0.1,2.6-0.2l0,2.3c-0.3,0-2.4-0.1-2.7-0.1v3.1c0.4,0,2.4,0,3.3-0.1L38.5,30.5z"/>
	</g>
	<g>
		<path class="st2" d="M47.1,30.5c-0.3,0-5-0.2-5.8-0.2c0.1-1,0.1-4.8,0.1-5.2v-2.4c0-0.3,0-4.7-0.1-5.1h2.6c0,0.4-0.1,4.1-0.1,6.3
			v4c0.3,0,2,0,3.3-0.1L47.1,30.5z"/>
	</g>
	<g>
		<path class="st2" d="M54.2,17.3c3.1,0,5.3,2.3,5.3,6.4c0,2.6-1.5,6.9-6,6.9c-3.2,0-5.2-2.7-5.2-6.2C48.3,20.9,50.5,17.3,54.2,17.3
			z M53.8,28.3c1.4,0,3-1.3,3-4.5c0-2.8-1.3-4.2-2.8-4.2c-1.7,0-3,1.8-3,4.6C51,26.8,52.2,28.3,53.8,28.3z"/>
	</g>
	<g>
		<path class="st2" d="M61.9,30.4c0-0.8,0-5.1,0-6.4v-2c0-0.4,0-4.1,0-4.3c1.9,0,3.4,0.1,4.5,0.4c1.6,0.4,2.9,1.5,2.9,3.5
			c0,2.4-1.8,4.7-4.9,5.4v0.7c0,0.4,0,2.3,0,2.7H61.9z M64.3,24.9c1.2-0.3,2.5-1.3,2.5-3c0-0.8-0.3-2.1-2.5-2.3V24.9z"/>
	</g>
	<g>
		<path class="st2" d="M70.2,29.9c0.3-0.7,3.2-11.1,3.8-12.6h0.1c0.7,1.5,3.1,6.8,3.5,7.8c0.5-1,3-6.2,3.5-7.4h0.1
			c0.8,2.2,3.6,10.6,4.1,12L83,30.9c-0.4-1.4-2.1-7.2-2.3-7.7c-0.3,0.6-2.5,4.9-3.3,6.5h-0.1c-1-2-2.6-5.7-2.9-6.4h0
			c-0.2,0.8-1.7,6.8-2,7.6L70.2,29.9z"/>
	</g>
	<g>
		<path class="st2" d="M93.1,30.5c-0.4,0-5.3-0.2-5.8-0.2c0-1,0-4.8,0-5.2v-2.4c0-0.3,0-4.6,0-5.1c0.6,0,5-0.3,5.5-0.3l0.1,2.3
			c-0.5,0-2.9,0.1-3.1,0.1V23c0.3,0,2-0.1,2.6-0.2l0,2.3c-0.3,0-2.4-0.1-2.7-0.1v3.1c0.4,0,2.4,0,3.3-0.1L93.1,30.5z"/>
	</g>
	<g>
		<path class="st2" d="M95.5,30.4c0-0.7,0.2-3.4,0.3-6.2c0.1-2.8,0.2-5.8,0.3-6.9l0.1-0.1c1.4,1.4,7,7.5,7.4,8.1c0-0.7,0-7,0.1-7.8
			l2.3,0.1c-0.1,1-0.2,3.5-0.3,6.1c-0.1,2.6-0.2,5.3-0.2,6.9l-0.1,0.1c-1.2-1-7.2-7.8-7.4-8.1h0c0,0.6-0.1,7.2-0.1,7.8L95.5,30.4z"
			/>
	</g>
	<g>
		<path class="st2" d="M110.7,30.4c0-0.5,0.1-4.1,0.1-6.5V20c-1.1,0-3.1,0.1-3.6,0.1v-2.5c0.6,0.1,4.1,0.2,4.2,0.2h1.3
			c0.3,0,3.4-0.1,4.1-0.2v2.5c-0.3-0.1-2.9-0.1-3.6-0.1v4.2c0,2.6,0.1,5.8,0.1,6.2H110.7z"/>
	</g>
	<g>
		<path class="st2" d="M0.4,45.5c1.4-0.1,3-0.8,3-1.8c0-0.6-0.3-0.9-1.4-1.7c-1-0.7-2-1.6-2-3c0-2,2.1-4,5.1-4.5l0.3,2.4
			C4,37,2.6,37.5,2.6,38.6c0,0.6,0.7,1,1.5,1.6c0.9,0.6,2,1.3,2,2.9c0,1.9-1.6,4.2-5.3,4.9L0.4,45.5z"/>
	</g>
	<g>
		<path class="st2" d="M14.4,47.8c-0.4,0-5.3-0.2-5.8-0.2c0-1,0-4.8,0-5.2v-2.4c0-0.3,0-4.6,0-5.1c0.6,0,5-0.3,5.5-0.3l0.1,2.3
			c-0.5,0-2.9,0.1-3.1,0.1v3.3c0.3,0,2-0.1,2.6-0.2l0,2.3c-0.3,0-2.4-0.1-2.7-0.1v3.1c0.4,0,2.4,0,3.3-0.1L14.4,47.8z"/>
	</g>
	<g>
		<path class="st2" d="M17.3,47.6c0.1-0.4,0-6.1,0-6.5v-1.5c0-0.5,0-4.4-0.1-4.7c1.5,0,3.1,0,4.4,0.2c2.1,0.3,3.2,1.3,3.2,3
			c0,1.5-0.8,2.6-1.9,3.6c0.4,0.6,2.8,3.9,3.1,4.4L24,48c-0.3-0.5-3.2-5.7-3.6-6.5c0.7-0.5,1.9-1.5,1.9-2.9c0-0.8-0.5-1.8-2.5-1.8
			v5.2c0,0.7,0,5.2,0.1,5.5H17.3z"/>
	</g>
	<g>
		<path class="st2" d="M28.6,34.5c0.3,0.8,2.9,7.6,3.2,8.6c0.4-1,3.2-8.1,3.4-8.6l2.3,1.5c-0.5,1-4.9,10.5-5.8,12.2h-0.1
			c-1-1.9-4.9-11.3-5.4-12.2L28.6,34.5z"/>
	</g>
	<g>
		<path class="st2" d="M39.2,47.6c0-0.8,0-5,0-5.5v-1.9c0-0.3,0-4.9-0.1-5.3h2.6c0,0.3-0.1,3.2-0.1,5.3v1.9c0,1.8,0,5,0.1,5.4H39.2z
			"/>
	</g>
	<g>
		<path class="st2" d="M52.2,47.7c-0.5,0.1-1.1,0.2-1.8,0.2c-4.8,0-6.3-3.3-6.3-5.4c0-3,2.2-6.7,7.2-7.9l0.5,2.7
			c-3.1,0.6-5,2.6-5,4.8c0,1.7,1.3,3.2,3.8,3.2c0.6,0,1.1-0.1,1.5-0.2L52.2,47.7z"/>
	</g>
	<g>
		<path class="st2" d="M60.4,47.8c-0.4,0-5.3-0.2-5.8-0.2c0-1,0-4.8,0-5.2v-2.4c0-0.3,0-4.6,0-5.1c0.6,0,5-0.3,5.5-0.3l0.1,2.3
			c-0.5,0-2.9,0.1-3.1,0.1v3.3c0.3,0,2-0.1,2.6-0.2l0,2.3c-0.3,0-2.4-0.1-2.7-0.1v3.1c0.4,0,2.4,0,3.3-0.1L60.4,47.8z"/>
	</g>
</g>
</svg>
