<svg xmlns="http://www.w3.org/2000/svg" viewBox="0 0 24 24"><defs><style>.cls-1{fill:#69c5ac;}.cls-2{fill:#fff;}</style></defs><g id="Layer_2" data-name="Layer 2"><g id="Layer_1-2" data-name="Layer 1"><circle class="cls-1" cx="12" cy="12" r="12"/><path class="cls-2" d="M4.5,10.25c0,.56.25.81.58.81.53,0,.67-.61.75-1,0-.15.41-.35.7-.35.09,0,.13.05.13.11s-.08.17-.13.4a8.23,8.23,0,0,0-.14,1c-.11,2.05-.64,3.54-2.15,3.54a1.26,1.26,0,0,1-1.36-1.17A1.17,1.17,0,0,1,4.1,12.36c.18,0,.28,0,.28.12s0,.08-.1.12a.58.58,0,0,0-.32.47c0,.28.15.47.52.47.65,0,1.08-1,1.2-2.31A1.38,1.38,0,0,1,4.46,12a1.28,1.28,0,0,1-1.25-1.41C3.21,8.8,4.52,7.3,5.69,7.3a.88.88,0,0,1,1,.88c0,.42-.19.74-.49.74a.34.34,0,0,1-.36-.34c0-.34.3-.37.3-.6s-.08-.2-.24-.2a.84.84,0,0,0-.59.27A3.16,3.16,0,0,0,4.5,10.25Z"/><path class="cls-2" d="M6.78,11.73c0-.48.25-1,.25-1.25s0-.14,0-.24.4-.28.84-.28c.17,0,.26.07.26.19,0,.31-.24.79-.24,1.29,0,.19.11.31.25.31s.19-.06.29-.16.08-.08.13-.08a.11.11,0,0,1,.1.11.39.39,0,0,1-.12.24,1.21,1.21,0,0,1-1,.5C7,12.36,6.78,12.08,6.78,11.73Zm1-3.21a.39.39,0,0,1,.42.41.65.65,0,0,1-.56.63.42.42,0,0,1-.43-.41A.65.65,0,0,1,7.79,8.52Z"/><path class="cls-2" d="M9.31,12.16c0,.13-.05.16-.17.16s-.52,0-.63,0-.16,0-.16-.17.32-1.3.32-1.71c0-.13-.06-.14-.06-.24S9,10,9.46,10c.17,0,.26.07.26.19a1.75,1.75,0,0,1-.05.33.81.81,0,0,1,.67-.49.33.33,0,0,1,.35.35.56.56,0,0,1-.49.6.3.3,0,0,1-.32-.28c-.05,0-.14.11-.26.32A3.5,3.5,0,0,0,9.31,12.16Z"/><path class="cls-2" d="M10.65,11.65c0-.69.59-1.66.59-2.84,0-.25-.13-.37-.3-.37s-.11,0-.11-.09.41-.41.84-.41a.57.57,0,0,1,.64.59c0,.64-.6,2.18-.6,2.91,0,.19.1.31.24.31s.19-.06.29-.16.08-.08.13-.08a.11.11,0,0,1,.1.11.39.39,0,0,1-.12.24,1.21,1.21,0,0,1-.95.5A.68.68,0,0,1,10.65,11.65Z"/><path class="cls-2" d="M12.84,11.61c0,.19.07.32.21.32s.17-.07.17-.21c0-.44-.75-.51-.75-1.08s.47-.72,1-.72.81.21.81.52a.35.35,0,0,1-.36.39.27.27,0,0,1-.27-.26c0-.11.06-.16.06-.23s-.06-.1-.15-.1a.24.24,0,0,0-.22.25c0,.45.84.51.84,1.06s-.4.83-1.06.83-1-.25-1-.66a.36.36,0,0,1,.35-.39C12.72,11.33,12.84,11.43,12.84,11.61Z"/><path class="cls-2" d="M8.67,14.92c0-.09,0-.14.12-.14h1.3c.06,0,.09,0,.09.08v1.62c0,.1,0,.16-.13.16H9.74c-.12,0-.17,0-.21-.12l0-.05a2.15,2.15,0,0,1-1,.22c-1.24,0-2.15-.61-2.15-2,0-1.1.77-1.9,2.18-1.9s1.61.54,1.61,1a.52.52,0,0,1-.56.52.49.49,0,0,1-.51-.51.64.64,0,0,1,.07-.28,2.12,2.12,0,0,0-.54-.06,1.18,1.18,0,0,0-1.28,1.3A1.12,1.12,0,0,0,8.55,16a1.77,1.77,0,0,0,.78-.17v-.27c0-.12-.08-.17-.19-.17H8.79c-.08,0-.12,0-.12-.14Z"/><path class="cls-2" d="M12.14,13.81a1.45,1.45,0,1,1,0,2.89,1.45,1.45,0,1,1,0-2.89Zm-.65,1.45c0,.56.21.87.65.87s.65-.31.65-.87-.21-.88-.65-.88S11.49,14.69,11.49,15.26Z"/><path class="cls-2" d="M17,16.05h0c.12,0,.13,0,.13.1v.37c0,.1,0,.12-.13.12H15.44c-.1,0-.13,0-.13-.12v-.37c0-.07,0-.1.13-.1h0c.22,0,.3-.05.3-.29v-2c0-.24-.08-.29-.3-.29h-.05c-.1,0-.12,0-.12-.1V13c0-.09,0-.12.12-.12H17c.1,0,.13,0,.13.12v.37c0,.07,0,.1-.13.1H17c-.21,0-.29,0-.29.29v2C16.69,16,16.77,16.05,17,16.05Z"/><path class="cls-2" d="M17.76,12.88h3.07c.2,0,.23,0,.25.25l0,.78c0,.09,0,.12-.1.12h-.41c-.09,0-.12,0-.14-.11l0-.17c0-.24-.16-.24-.67-.24h0v2.31c0,.2.09.23.29.23h.05c.11,0,.13,0,.13.1v.37c0,.1,0,.12-.13.12h-1.6c-.09,0-.12,0-.12-.12v-.37c0-.07,0-.1.12-.1h.05c.21,0,.3-.05.3-.29V13.51h0c-.5,0-.62,0-.66.24l0,.17c0,.09-.05.11-.13.11h-.42c-.1,0-.09,0-.09-.12l0-.78C17.52,12.9,17.56,12.88,17.76,12.88Z"/></g></g></svg>