<?xml version="1.0" encoding="utf-8"?>
<!-- Generator: Adobe Illustrator 23.0.1, SVG Export Plug-In . SVG Version: 6.00 Build 0)  -->
<svg version="1.1" id="Layer_1" xmlns="http://www.w3.org/2000/svg" xmlns:xlink="http://www.w3.org/1999/xlink" x="0px" y="0px"
	 viewBox="0 0 107.5 107.5" style="enable-background:new 0 0 107.5 107.5;" xml:space="preserve">
<style type="text/css">
	.st0{fill:#FFDB79;}
	.st1{fill:#484545;}
	.st2{fill:#74C1AA;}
</style>
<path class="st0" d="M107.5,54.2c0,29.7-24.1,53.7-53.7,53.7C24.1,107.9,0,83.9,0,54.2C0,24.5,24.1,0.5,53.7,0.5
	C83.4,0.5,107.5,24.5,107.5,54.2"/>
<path class="st1" d="M83.9,46.5c-2,0.7-5.1,1.4-7.2,0.4c-0.2-0.1,0-0.3,0.1-0.3c2.2,0.6,4.7-0.4,6.8-0.9
	C84.1,45.7,84.3,46.4,83.9,46.5"/>
<path class="st1" d="M75.3,59c1.7,0.7,3.9,0.8,5.1,2.4c0.3,0.4-0.2,1-0.6,0.6c-1.4-1.3-3.2-1.6-4.8-2.6C74.9,59.3,75.1,58.9,75.3,59
	"/>
<path class="st1" d="M71.4,34.2c-0.6,0.8-1.4,1.7-2.5,1.5c-0.2,0-0.1-0.2,0-0.3c1.3-0.1,2.3-2.2,3-3.1c0.6-0.8,1.3-1.9,2.4-2
	c0.3,0,0.4,0.4,0.2,0.6C73.2,31.8,72.4,33,71.4,34.2"/>
<path class="st1" d="M61.2,31.4c1.4-0.5,1.7-2.8,2.2-4c0.4-0.9,0.8-2.1,1.9-2.3c0.3,0,0.4,0.4,0.2,0.5c-0.5,0.6-1,1.1-1.4,1.8
	c-0.3,0.7-0.6,1.4-0.9,2.1c-0.4,0.9-0.9,2-2,2C61.1,31.7,61.1,31.5,61.2,31.4"/>
<path class="st2" d="M52.7,51.3c-0.7,1.2-0.7,3.1-0.3,4.3c0.1,0.4,0.7,0.5,1,0.1c0.4-0.7,0.8-2.7,0.5-4.2c0,0,0.1-0.1,0.1-0.1
	c0.3,0.7,0.4,1.3,0.4,2c-0.2,1-0.1,1.9,0,2.3c0.2,0.6,1,0.5,1.1-0.1c0-0.5,0-1,0-1.5c0.2-1.6,1-3.7,1.9-2.5c1.1,1.4,0.5,4.1,0.2,5.7
	c-0.1,0.3,0.1,0.5,0.3,0.6c-0.1,1.2-0.2,2.3-0.3,3.5c-0.2,3.5-0.1,7.3,0.3,10.9v0c-1,0.1-2,0.3-3,0.4c-0.6,0-1.2,0.1-1.8,0.1
	c-0.3-2.6-1.3-5.2-1.9-7.7c-0.8-3.2-1.2-6.5-1.9-9.8c0,0,0-0.1,0-0.1c0.1-0.4,0.1-0.7,0.1-1.1c0-0.7,0-1.3,0.2-1.9
	c0.1-0.2,0.6-1.8,0.9-1c0,0,0,0.1,0,0.1c-0.7,1.6-0.5,3.9,0.7,4.6c0.3,0.2,0.8-0.1,0.8-0.4c0-0.9,0-2.6-0.3-3.9
	c0.3-0.7,0.6-1.1,0.9-0.4C52.7,51.2,52.7,51.2,52.7,51.3"/>
<path class="st1" d="M53,72.8c-2.3-5.1-3.2-10.6-4.3-16c-0.1,0-0.3-0.1-0.2-0.3c0-0.1,0-0.3,0-0.6c0-0.1,0-0.2-0.1-0.3
	c0-0.2,0-0.3,0.1-0.4c0.1-2.2,0.3-6.2,2.2-5.3c0.2,0.1,0.4,0.2,0.5,0.4c0.3-0.3,0.5-0.4,0.9-0.5c0.7-0.2,1.2,0.1,1.5,0.7
	c0.2-0.1,0.3-0.2,0.5-0.2c0.2-0.1,0.5,0,0.6,0.2c0.2,0.3,0.3,0.6,0.4,0.8c0.5-0.9,1.1-1.4,2-1.2c1.4,0.4,2,2.1,2.1,3.9
	c0.5,2.2-0.4,4.7-0.5,6.8c-0.3,3.8,0,7.6-0.4,11.4l-0.3,0c-0.4-3.5-0.5-7.3-0.3-10.9c0.1-1.2,0.2-2.3,0.3-3.5
	c-0.2-0.1-0.4-0.3-0.3-0.6c0.3-1.6,0.8-4.3-0.2-5.7c-0.9-1.2-1.7,0.9-1.9,2.5c0,0.5,0,1,0,1.5c0,0.6-0.9,0.7-1.1,0.1
	c-0.2-0.5-0.2-1.4,0-2.3c0-0.7-0.1-1.4-0.4-2c0,0-0.1,0.1-0.1,0.1c0.2,1.5-0.1,3.5-0.5,4.2c-0.2,0.4-0.8,0.3-1-0.1
	c-0.4-1.2-0.4-3,0.3-4.3c0-0.1,0-0.1,0-0.2c-0.3-0.7-0.6-0.3-0.9,0.4c0.3,1.3,0.3,3,0.3,3.9c0,0.4-0.4,0.7-0.8,0.4
	c-1.3-0.7-1.4-3-0.7-4.6c0,0,0-0.1,0-0.1c-0.3-0.8-0.9,0.8-0.9,1c-0.2,0.7-0.2,1.3-0.2,1.9c0,0.4,0,0.8-0.1,1.1c0,0,0,0.1,0,0.1
	c0.7,3.3,1.1,6.5,1.9,9.8c0.6,2.6,1.6,5.1,1.9,7.7L53,72.8z"/>
<path class="st2" d="M62.2,66.3c-0.9,2.1-0.7,4.1-0.6,6.2c-0.4-0.2-0.9-0.4-1.3-0.4c-0.7,0-1.4,0-2,0.1c0.4-3.8,0-7.6,0.3-11.4
	c0.2-2.1,1-4.7,0.5-6.8c-0.1-1.8-0.6-3.5-2.1-3.9c-0.9-0.3-1.5,0.3-2,1.2c-0.1-0.3-0.2-0.6-0.4-0.8c-0.1-0.2-0.4-0.3-0.6-0.2
	c-0.2,0.1-0.4,0.1-0.5,0.2c-0.3-0.6-0.8-0.9-1.5-0.7c-0.3,0.1-0.6,0.3-0.9,0.5c-0.1-0.2-0.3-0.3-0.5-0.4c-1.9-0.9-2.1,3.1-2.2,5.3
	c-0.1,0.1-0.1,0.3-0.1,0.4c0,0.1,0,0.2,0.1,0.3c0,0.3,0,0.5,0,0.6c0,0.2,0.1,0.3,0.2,0.3c1.1,5.4,2,10.9,4.3,16
	c-2,0.1-3.9,0.3-5.9,0.3c0.9-2.4-1.4-5.4-2.8-7.1c-1.3-1.7-3-3-4.4-4.5c-2.1-2.3-3-5.3-3.4-8.3c-1.2-8.8,4.1-15.6,12.4-17.9
	c7.8-2.2,18.4,0.2,20.5,9c1.2,5.1-0.7,10.4-3.1,14.9C65.1,61.6,63.4,63.8,62.2,66.3"/>
<path class="st1" d="M47.5,30.4c0.2-1.8-1.4-3.2-1.3-4.9c0-0.3,0.5-0.5,0.7-0.2c0.4,0.9,0.7,2.1,1,3c0.2,0.8,0.3,1.5,0,2.2
	C47.8,30.7,47.5,30.6,47.5,30.4"/>
<path class="st1" d="M61.1,75.2c-3.3,1.4-8.1,1.8-11.5,1.4c-0.7-0.1-1.3-0.2-1.8-0.4c0.1,0.6,0,1.3-0.3,1.3c0.5,0,0.9,0.1,1.4,0.1
	c1.5,0.1,3,0.3,4.5,0.3C55.5,78,61.4,78.3,61.1,75.2 M66.4,59.2c2.4-4.4,4.3-9.8,3-14.9c-2.1-8.8-12.8-11.2-20.5-9
	c-8.4,2.3-13.6,9.1-12.4,17.9c0.4,3,1.3,6,3.4,8.3c1.4,1.5,3.1,2.9,4.4,4.5c1.4,1.8,3.7,4.7,2.8,7.1c2,0,3.9-0.2,5.9-0.3l0.2,0
	c0.6,0,1.2-0.1,1.8-0.1c1-0.1,2-0.2,3-0.4v0l0.3,0c0.7-0.1,1.3-0.1,2-0.1c0.4,0,0.9,0.2,1.3,0.4c-0.1-2.2-0.4-4.1,0.6-6.2
	C63.4,63.8,65.1,61.6,66.4,59.2 M54.3,83.2c-2.8,0.1-7.2,1-7-3c0,0,0,0,0-0.1c-0.6-0.5-0.7-1.2-0.2-1.8c-0.2-0.1-0.3-0.2-0.3-0.4
	c0-0.4,0.2-1.7,0.2-2.2c-0.3-0.4-0.4-0.9-0.5-1.7c-0.1-0.2-0.1-0.5,0-0.7c0,0,0-0.1,0-0.2c0.8-2.3-1.8-5.4-3.2-7
	c-1.5-1.8-3.5-3.2-5-5.1c-2.8-3.4-3.6-9-3-13.3c1.2-7.6,7.8-12.7,15.1-13.9c7-1.1,16.7,0.7,19.3,8.4c1.5,4.5,0.9,9.4-0.9,13.7
	c-1.1,2.7-2.6,5.3-4.2,7.8C64,65.1,63,66.5,62.7,68c-0.4,1.8-0.1,3.4-0.1,5.1c0,0.2,0,0.3-0.1,0.3c0.1,0.4,0,0.8-0.4,1.2
	c0.2,0.7,0.2,1.3,0.1,1.9c0.6,1.2,0.3,2-0.5,2.7C61.6,82.7,56.9,83.1,54.3,83.2 M49,75.6c1.2,0.1,2.5,0.1,3.7,0
	c1.6-0.1,3.1-0.3,4.7-0.6c1.1-0.2,2.8-0.3,3.7-1c0.9-0.6-1.8-0.9-2-0.9c-0.6,0.1-1.2,0.1-1.8,0.3c-0.8,0.1-1.6,0.2-2.4,0.3
	c-2.6,0.2-5.2,0.4-7.8,0.5C47.4,75.1,47.8,75.5,49,75.6 M47.7,80.4c0.4,2.1,1.7,2.2,3.7,2.2c1,0,1.9,0,2.9-0.1
	c2-0.1,5.8-0.3,6.4-2.6c-2,1-5.3,1.2-6.6,1.3c-2,0.1-4,0.3-5.8-0.5C48.1,80.6,47.9,80.5,47.7,80.4 M47.6,78.3c-1.1,2.6,5.7,2,7,1.9
	c1.3-0.1,7.2-0.5,6.9-2.7C58.8,79.8,50.1,78.7,47.6,78.3"/>
<path class="st1" d="M36.1,38.4c-1-1.9-2.9-3.7-3.3-5.9c-0.1-0.4,0.4-0.6,0.6-0.3c0.6,1,1,2.1,1.6,3.1c0.6,0.9,1.1,1.9,1.4,2.9
	C36.5,38.4,36.2,38.6,36.1,38.4"/>
<path class="st1" d="M29.9,44.6c0.9,0.7,1.8,1.4,2.6,2.1c0.1,0.1,0,0.3-0.2,0.2c-2-0.9-4.3-2.5-5.6-4.2c-0.2-0.3,0.2-0.7,0.5-0.5
	C28.2,43,29,43.9,29.9,44.6"/>
<path class="st1" d="M26.1,54.8c-0.8,0-2.1,0.2-2.7-0.3c-0.1-0.1-0.1-0.4,0.1-0.5c0.8-0.4,2.5,0,3.4,0c1.3,0.1,2.7,0.2,3.9,0.7
	c0.3,0.1,0.1,0.5-0.2,0.5C29.1,55,27.6,54.9,26.1,54.8"/>
</svg>
