<?xml version="1.0" encoding="utf-8"?>
<!-- Generator: Adobe Illustrator 23.0.1, SVG Export Plug-In . SVG Version: 6.00 Build 0)  -->
<svg version="1.1" id="Layer_1" xmlns="http://www.w3.org/2000/svg" xmlns:xlink="http://www.w3.org/1999/xlink" x="0px" y="0px"
	 viewBox="0 0 107.5 107.5" style="enable-background:new 0 0 107.5 107.5;" xml:space="preserve">
<style type="text/css">
	.st0{fill:#74C1AA;}
	.st1{fill:#BAE1F0;}
	.st2{fill:#484545;}
</style>
<g>
	<path class="st0" d="M107.5,53.7c0,29.7-24.1,53.7-53.7,53.7C24.1,107.5,0,83.4,0,53.7S24.1,0,53.7,0C83.4,0,107.5,24.1,107.5,53.7
		"/>
	<path class="st1" d="M54.9,50.8c-2.9-0.1-5.8-0.8-8.7-1.1c-2.1-0.2-4.1-0.7-6.1-1.4c-0.7,2.8-1.1,5.6-1.5,8.4
		c-0.4,3.1-1.2,6.2-1.5,9.4c-0.5,6-1.2,12.8,4.6,16.7c4.8,3.2,11.7,4.6,16.8,1.4c3.1-1.9,5.7-4.3,7.8-7.3c1.8-2.7,2.4-5.9,3.3-8.9
		c1.2-4.2,2.4-8.7,3-13.1c-2.2-1.4-5.6-2.1-8.1-2.6C61.4,51.6,58.2,50.9,54.9,50.8"/>
	<path class="st2" d="M68.4,19.4c-0.8,4.5-4.2,8.6-7.5,11.7l0.3,0.3c2.9-2,5.5-5.4,7-8.4c2-3.9,1.8-9.2,1.3-13.4
		c-0.4-2.7-1.1-5.2-2-7.7c-0.3-0.1-0.7-0.2-1-0.3c0.2,0.4,0.3,0.8,0.4,1.2C68.7,8.1,69.5,13.8,68.4,19.4"/>
	<path class="st1" d="M56.9,49.9C56.9,49.9,56.9,49.9,56.9,49.9L56.9,49.9c0,0.2-0.1,0.2-0.2,0.2c0.6,0.1,1.2,0.1,1.8,0.2
		c2.9,0.4,5.9,1,8.6,1.8c1.9,0.6,4,1,5.7,2c0.3-1.9,0.4-3.9,0.4-5.8c0-6-1.4-11.5-7.3-14.2c-1.6-0.7-3.3-1.3-5-1.7
		c-1,3-1.5,6.2-2.3,9.2C58,44.3,57.1,47.1,56.9,49.9"/>
	<path class="st1" d="M56.4,50.1c0,0-0.1-0.1-0.1-0.1c0,0,0,0,0,0c0,0,0,0,0-0.1c-0.1-0.9,0.3-1.8,0.5-2.7c0.5-1.9,0.9-3.8,1.4-5.8
		c0.8-3.1,1.2-6.3,2.5-9.2c-0.8-0.2-1.6-0.4-2.4-0.5c-2.1-0.3-4.6-0.6-7-0.3c0,0,0,0.1-0.1,0.1c-0.2,0-0.4,0-0.6,0
		c-1,0.2-2,0.6-2.8,1.1c-0.1,0.1-0.3,0.1-0.4,0c-4.4,2.8-5.7,9.8-6.9,14.5c-0.1,0.2-0.1,0.5-0.2,0.7c2.8,0.5,5.7,1,8.5,1.4
		C51.3,49.6,53.9,49.8,56.4,50.1"/>
	<path class="st2" d="M60.8,31.2c-0.2,0-0.3-0.1-0.5-0.1c-3.8-1-9.9-1.8-13,1.1c0,0-0.1,0.1-0.1,0.1c-3.3,1.9-5.1,6.2-6.2,9.9
		c-0.5,1.9-1,3.7-1.4,5.6c0,0-0.1,0-0.1,0c-0.2,0-0.3,0.3-0.1,0.4c0,0,0.1,0,0.1,0c-1.1,5-1.9,10.1-2.6,15.2
		c-0.8,5.5-1.8,12,1.3,16.9c3,4.7,8.8,6.2,14,6.7c5.8,0.6,11.4-4.5,14.6-8.8c2-2.7,2.7-5.8,3.6-8.9c1.1-3.9,2-7.8,2.8-11.7
		c1.3-6,2.1-12.8-0.5-18.6c-2.1-4.5-7-6.4-11.5-7.6L60.9,31C60.9,31.1,60.8,31.2,60.8,31.2 M40.4,47.2c1.3-4.7,2.5-11.7,6.9-14.5
		c0.1,0.1,0.2,0.1,0.4,0c0.8-0.6,1.8-0.9,2.8-1.1c0.2,0,0.4,0,0.6,0c0.1,0,0.1,0,0.1-0.1c2.3-0.3,4.9-0.1,7,0.3
		c0.8,0.1,1.6,0.3,2.4,0.5c-1.3,2.9-1.7,6.1-2.5,9.2c-0.5,1.9-0.9,3.9-1.4,5.8c-0.2,0.8-0.6,1.8-0.5,2.7c0,0,0,0,0,0.1c0,0,0,0,0,0
		c0,0.1,0,0.1,0.1,0.1c-2.5-0.3-5.1-0.5-7.6-0.8c-2.9-0.4-5.7-0.9-8.5-1.4C40.3,47.7,40.3,47.4,40.4,47.2 M69.7,68
		c-0.8,3-1.5,6.3-3.3,8.9c-2,3.1-4.7,5.4-7.8,7.3c-5.1,3.2-12.1,1.8-16.8-1.4C36,79,36.7,72.2,37.2,66.2c0.3-3.2,1-6.3,1.5-9.4
		c0.4-2.8,0.8-5.6,1.5-8.4c2,0.6,4,1.1,6.1,1.4c2.9,0.3,5.8,1,8.7,1.1c3.3,0.1,6.4,0.8,9.6,1.5c2.5,0.5,5.9,1.2,8.1,2.6
		C72,59.4,70.8,63.8,69.7,68 M66,34.1c5.9,2.6,7.3,8.2,7.3,14.2c0,1.9-0.2,3.9-0.4,5.8c-1.7-1-3.8-1.4-5.7-2
		c-2.8-0.8-5.8-1.4-8.6-1.8c-0.6-0.1-1.2-0.1-1.8-0.2c0.1,0,0.1-0.1,0.2-0.2v0c0,0,0,0,0-0.1c0.2-2.8,1.1-5.6,1.9-8.3
		c0.8-3.1,1.3-6.2,2.3-9.2C62.7,32.8,64.4,33.4,66,34.1"/>
</g>
</svg>
