<?xml version="1.0" encoding="utf-8"?>
<!-- Generator: Adobe Illustrator 23.0.1, SVG Export Plug-In . SVG Version: 6.00 Build 0)  -->
<svg version="1.1" id="Layer_1" xmlns="http://www.w3.org/2000/svg" xmlns:xlink="http://www.w3.org/1999/xlink" x="0px" y="0px"
	 viewBox="0 0 107.5 107.5" style="enable-background:new 0 0 107.5 107.5;" xml:space="preserve">
<style type="text/css">
	.st0{fill:#F1908D;}
	.st1{fill:#484545;}
	.st2{fill:#EA79AA;}
	.st3{fill:#13110C;}
</style>
<g>
	<path class="st0" d="M107.4,53.6c0,29.7-24.1,53.7-53.7,53.7C24,107.4,0,83.3,0,53.6C0,24,24-0.1,53.7-0.1
		C83.4-0.1,107.4,24,107.4,53.6"/>
	<path class="st1" d="M102.6,63.5l-0.1,0.6c1.3,0.5,2.4,1.5,3.3,2.6c0.1-0.5,0.2-1,0.3-1.4C105.1,64.4,103.9,63.7,102.6,63.5"/>
	<path class="st1" d="M102.5,64.8c0-0.1,0-0.2,0-0.3c0-0.1,0-0.3,0-0.4l0.1-0.6c-0.1,0-0.2,0-0.3,0c0-0.1-0.1-0.1-0.1-0.2
		c0.3-10.1,2.8-24-8.2-29.5c-3.6-1.8-7.6-1.6-11.7-0.5c-0.6-0.7-1.3-1.3-2.2-1.7c-7.7-2.6-17-1.1-24.9-0.4
		c-7.2,0.7-14.7-0.4-21.9,1.1c-5.9,1.3-9.4,7.9-11.1,13.2c0,0,0,0.1,0,0.1c-2.4,3.7-5.9,9-3.4,11.3c1.3,1.2,4.4,1,6,1.1
		c1.9,0.2,3.8,0.2,5.7,0.2c-1,4.6-2,9.6-2.2,14.6c1.3-0.1,3-0.3,3.3-0.4c3.2-0.8,6.1-2.5,8.9-4.3c1.9-1.2,3.5-2.6,5.3-3.9
		c2.3-1.7,3.4-1.2,5.9-0.3c9.4,3.7,18.8,3.1,28.6,2.1c0.3,0,2.3-0.3,2.8-0.3c-0.1-2.7-0.2-5.5-0.2-8.2c0-0.1,0-0.2-0.1-0.3
		c3.5,0.6,7.1,1,10.8,0.3c1-0.2,1.1-1.2,0.6-1.8c1.1-5.5-5.3-11.7-7-16.5c-0.2-0.7-0.8-0.9-1.4-0.8c-0.8-1.2-1.7-2.4-2.5-3.6
		c2.6-0.6,5.3-0.7,8-0.2c12.3,2.4,8.8,19.8,8.7,28.6c0,0,0,0,0,0c-1.6,2.4-3.2,4.8-4.7,7.2c-1.1,1.8-2.6,4-2.8,6.2
		c0,0.7,1,1,1.3,0.4c1.3-2,2-4.5,3.2-6.6c0.9-1.6,1.9-3.2,2.8-4.8c0.1,0.2,0.3,0.3,0.5,0.3c0,0.1,0,0.3-0.1,0.4
		c-1.3,1-2.1,4.2-2.8,5.7c-0.8,1.8-2.8,5.3-1.8,7.3c0.2,0.4,0.7,0.3,0.9,0c0.5-0.8,0.5-1.9,0.8-2.8c0.4-1.3,0.9-2.6,1.4-3.9
		c0.2-0.5,0.4-0.9,0.6-1.4c-0.3,1.6-0.8,3.4-0.3,5c0.2,0.6,1,0.5,1.2,0c0.6-1.5,0.7-3.1,0.9-4.7c0-0.1,0-0.2,0-0.3
		c0.1,1.8,0.4,3.5,0.8,5.2c0.5-1.1,1-2.3,1.5-3.4c-0.2-1.8-0.5-3.7-0.8-5.5c0.5,0.9,0.9,1.7,1.4,2.6c0.1,0.2,0.2,0.4,0.3,0.6
		c0.2-0.7,0.4-1.3,0.6-2C104.4,67.5,103.5,66.1,102.5,64.8C102.5,64.8,102.5,64.8,102.5,64.8 M79.5,63.7c-4.7,0.5-9.4,1-14.1,1
		C60.1,64.6,55,63.2,50,61.4c-2.5-0.9-3.9,0.6-5.9,2c-4.2,3-8.1,5.7-12.9,7.7c0.4-4.2,1.2-8.5,1.8-12.4c2.2,0,4.5-0.2,6.7-0.3
		c9.3-0.6,18.5-2.4,27.8-2.5c4.2-0.1,8.1,0.9,12.1,1.7c-0.1,0.1-0.2,0.3-0.2,0.6C79.3,59.9,79.4,61.8,79.5,63.7 M86.5,43.4
		c2.2,3.9,5.7,7.7,6,12c-0.9,0.1-1.7,0.2-2.6,0.3c-0.5,0-0.9,0-1.4,0c0,0,0,0-0.1,0c-5.6-0.1-11.1-2.2-16.8-2.7
		c-1.5-0.2-3.1-0.2-4.6-0.2h0c-2.6,0-5.2,0.3-7.8,0.6c-0.5,0.1-1,0.1-1.6,0.2c-2.1,0.3-4.2,0.6-6.2,0.9c-1.5,0.2-3.1,0.4-4.6,0.6
		c-4.9,0.6-9.9,1-14.8,1.2c0-0.1,0-0.2,0-0.3c0,0,0-0.1,0-0.1c0-0.1,0-0.1,0-0.2c0-0.1,0-0.1-0.1-0.2c0,0,0,0,0,0c0,0,0,0,0,0
		c-0.1-0.1-0.2-0.1-0.3-0.1c-0.3,0-0.6,0.1-0.6,0.4c0,0.1-0.1,0.2-0.1,0.3c0,0.1,0,0.2-0.1,0.3c-0.7,0-1.4,0-2.1,0
		c-1.4,0-2.7,0-4.1,0c-0.3,0-0.6,0-0.9,0c-0.9-0.1-1.8-0.2-2.7-0.3c-0.6-0.1-0.9-0.2-1.2-0.4c-0.4-0.4-0.4-1.1-0.1-1.8
		c0-0.1,0.1-0.2,0.1-0.3c0.1-0.3,0.2-0.7,0.4-1c0.1-0.3,0.2-0.7,0.4-1c1.3-3,3.5-5.4,4.2-8.7c0,0,0-0.1,0-0.1c0-0.1,0-0.1,0-0.2
		c0.9-1.4,1.8-2.8,2.8-4c0.6-0.7,1.3-1.4,2-2c0.2-0.2,0.5-0.4,0.7-0.6c1.8-1.3,3.8-2.1,6.5-2.4c0.8-0.1,1.5-0.1,2.3-0.2
		c3.3-0.2,6.6-0.1,10-0.1c0.5,0,1,0,1.4,0c1.5,0,3-0.1,4.6-0.2c1.9-0.2,3.8-0.3,5.7-0.5c5.7-0.4,11.4-0.5,17.1,0.4
		c0.6,0.1,1.1,0.3,1.5,0.6c0.1,0.1,0.3,0.2,0.4,0.3c-0.4,0.1-0.8,0.3-1.2,0.4c-3.5,1.3-7,3.1-10.1,4.6c-1.3,0.6-2.5,1.3-3.7,1.8
		c-0.7,0.3-1.5,0.7-2.2,0.9c0,0-0.1,0-0.1,0.1c-0.1,0.1-0.1,0.2-0.1,0.3c0,0.1,0.1,0.1,0.2,0.1c0,0,0.1,0,0.1,0
		c2.3-0.5,4.6-1.3,6.9-2.3c0.4-0.2,0.8-0.3,1.2-0.5c1.4-0.6,2.8-1.2,4.1-1.7c0.3-0.1,0.6-0.3,1-0.4c1.8-0.7,3.6-1.4,5.4-1.9
		c0.5,0.7,1,1.5,1.5,2.3C84.2,39.7,85.2,41.6,86.5,43.4"/>
	<path class="st2" d="M23.9,56.3c-0.9-0.1-1.8-0.2-2.7-0.3C22.1,56.1,23,56.2,23.9,56.3"/>
	<path class="st2" d="M49.1,33.4c-3.3,0-6.7-0.1-10,0.1C42.5,33.3,45.8,33.4,49.1,33.4"/>
	<path class="st2" d="M77.9,33.2c-5.7-0.9-11.4-0.8-17.1-0.4C66.5,32.4,72.2,32.3,77.9,33.2"/>
	<path class="st2" d="M78.7,34.5c-3.5,1.3-7,3.1-10.1,4.6C71.8,37.5,75.2,35.8,78.7,34.5"/>
	<path class="st2" d="M88.6,55.6c-5.6-0.1-11.1-2.2-16.8-2.7C77.4,53.5,82.9,55.5,88.6,55.6"/>
	<path class="st2" d="M67.1,52.7c1.6,0,3.1,0,4.6,0.2C70.2,52.8,68.7,52.7,67.1,52.7"/>
	<path class="st2" d="M81.4,35.6c-1.8,0.5-3.6,1.2-5.4,1.9c-0.3,0.1-0.6,0.3-1,0.4c-1.4,0.6-2.8,1.2-4.1,1.7
		c-0.4,0.2-0.8,0.3-1.2,0.5c-2.3,0.9-4.6,1.8-6.9,2.3c0,0-0.1,0-0.1,0c-0.1,0-0.1-0.1-0.2-0.1c0-0.1,0-0.2,0.1-0.3
		c0,0,0.1,0,0.1-0.1c0.7-0.3,1.4-0.6,2.2-0.9c1.2-0.5,2.4-1.2,3.7-1.8c3.2-1.6,6.6-3.3,10.1-4.6c0.4-0.1,0.8-0.3,1.2-0.4
		c-0.1-0.1-0.3-0.2-0.4-0.3c-0.4-0.3-0.9-0.5-1.5-0.6c-5.7-0.9-11.4-0.8-17.1-0.4c-1.9,0.1-3.8,0.3-5.7,0.5c-1.5,0.1-3,0.2-4.6,0.2
		c-0.5,0-0.9,0-1.4,0c-3.3,0-6.7-0.1-10,0.1c-0.8,0-1.5,0.1-2.3,0.2c-2.6,0.3-4.7,1.1-6.5,2.4c-0.3,0.2-0.5,0.4-0.7,0.6
		c-0.7,0.6-1.4,1.2-2,2c-1,1.2-1.9,2.5-2.8,4c0,0.1,0,0.1,0,0.2c0,0,0,0.1,0,0.1c-0.7,3.3-2.9,5.7-4.2,8.7c-0.1,0.3-0.3,0.7-0.4,1
		c-0.1,0.3-0.2,0.7-0.4,1c0,0.1-0.1,0.2-0.1,0.3c-0.2,0.7-0.3,1.4,0.1,1.8c0.2,0.2,0.6,0.4,1.2,0.4c0.9,0.1,1.8,0.2,2.7,0.3
		c0.3,0,0.6,0,0.9,0c1.4,0,2.7,0.1,4.1,0c0.7,0,1.4,0,2,0c0-0.1,0-0.2,0.1-0.3c0-0.1,0-0.2,0.1-0.3c0.1-0.3,0.4-0.4,0.6-0.4
		c0.1,0,0.2,0.1,0.3,0.1c0,0,0,0,0,0c0,0,0,0,0,0c0,0,0.1,0.1,0.1,0.2c0,0.1,0,0.1,0,0.2c0,0,0,0.1,0,0.1c0,0.1,0,0.2,0,0.3
		c5-0.2,9.9-0.6,14.8-1.2c1.5-0.2,3.1-0.4,4.6-0.6c2.1-0.3,4.1-0.6,6.2-0.9c0.5-0.1,1-0.1,1.6-0.2c2.6-0.3,5.2-0.6,7.8-0.6h0
		c1.6,0,3.1,0,4.6,0.2c5.7,0.6,11.1,2.6,16.8,2.7c0,0,0,0,0.1,0c0.5,0,0.9,0,1.4,0c0.8,0,1.7-0.1,2.6-0.3c-0.3-4.3-3.8-8.1-6-12
		c-1.3-1.8-2.4-3.7-3.7-5.5C82.3,37.1,81.9,36.3,81.4,35.6"/>
	<path class="st3" d="M77.9,33.2c0.6,0.1,1.1,0.3,1.5,0.6C79,33.5,78.5,33.3,77.9,33.2"/>
	<path class="st3" d="M32,55.5c-0.1-0.1-0.2-0.1-0.3-0.1C31.8,55.4,31.9,55.4,32,55.5"/>
	<path class="st3" d="M24.9,42.6c0.9-1.4,1.8-2.8,2.8-4C26.7,39.8,25.8,41.1,24.9,42.6"/>
	<path class="st3" d="M24.7,56.3c1.4,0,2.7,0.1,4.1,0C27.5,56.4,26.1,56.4,24.7,56.3"/>
	<path class="st3" d="M19.9,53.8c-0.2,0.7-0.3,1.4,0.1,1.8C19.6,55.2,19.7,54.5,19.9,53.8"/>
	<path class="st3" d="M62.7,42.4c-0.1,0-0.1-0.1-0.2-0.1C62.6,42.3,62.6,42.4,62.7,42.4"/>
	<path class="st3" d="M29.7,36.6c-0.7,0.6-1.4,1.2-2,2C28.3,37.9,29,37.2,29.7,36.6"/>
	<path class="st3" d="M50.5,33.4c1.5,0,3-0.1,4.6-0.2C53.6,33.4,52.1,33.4,50.5,33.4"/>
	<path class="st3" d="M55.1,33.2c1.9-0.2,3.8-0.3,5.7-0.5C58.9,32.9,57,33.1,55.1,33.2"/>
	<path class="st2" d="M67.4,55.8c-9.3,0.1-18.5,1.9-27.8,2.5c-2.2,0.1-4.4,0.3-6.7,0.3c-0.5,3.9-1.4,8.2-1.8,12.4
		c4.8-2,8.7-4.7,12.9-7.7c2-1.4,3.4-2.9,5.9-2c5,1.8,10,3.2,15.4,3.3c4.7,0.1,9.4-0.5,14.1-1c-0.1-1.9-0.2-3.8-0.2-5.6
		c0-0.3,0.1-0.4,0.2-0.6C75.5,56.8,71.6,55.8,67.4,55.8"/>
</g>
</svg>
